<svg id="Слой_1" data-name="Слой 1" xmlns="http://www.w3.org/2000/svg" viewBox="0 0 290.15 256.64"><defs><style>.cls-1{opacity:0.14;}</style></defs><path class="cls-1" d="M98.12,53.86A206.26,206.26,0,0,0,84.91,70.69,202.88,202.88,0,0,0,73.34,89.32a139.67,139.67,0,0,0-8.62,18.78,86.67,86.67,0,0,0-4.9,20.5,68.57,68.57,0,0,0,1.48,22.17c1.67,7.19,4.52,14.5,9.1,20.39A72.07,72.07,0,0,0,83.15,183.7,110.44,110.44,0,0,0,97.24,193a66.07,66.07,0,0,0,9.75,4.48,43.18,43.18,0,0,0,10.23,2.35l0-.23c.43-4.17.88-5.07-.08-9.1a24.07,24.07,0,0,0-2.18-5.58,35.34,35.34,0,0,0-5-6.77,51.72,51.72,0,0,1-5.63-8l.47,1.39-.91-3.37.44,3.84a110.28,110.28,0,0,1,0-15.1,55.19,55.19,0,0,1,2.11-11.47c.22-.92-1.43,1.7-1.17,1.27-.54.94-1.07,1.89-1.57,2.84a6.76,6.76,0,0,0-.7,1.55,31.84,31.84,0,0,0-.87,8.64,35.1,35.1,0,0,0,.2,6.06,21.53,21.53,0,0,0,1.78,7.74c.9,1.9,2.27,3.55,3.27,5.41a34.81,34.81,0,0,0,2.4,4l1.64,3.13c2,3,1.35.34,2.18,4.38,1.36,2.7.89,3.39-1.41,2.09-2.2-.62-4.36-1.33-6.5-2.13a85.41,85.41,0,0,1-11.19-5.82,17.76,17.76,0,0,1-4-2.79c-1.95-1.61-3.92-3.18-5.93-4.71a84.47,84.47,0,0,1-7.77-7.6,43.23,43.23,0,0,1-8.22-14.47,66.59,66.59,0,0,1-3.2-26.7c.82-11.14,4.82-21.93,9.74-31.88a189.11,189.11,0,0,1,10.3-17.83l6.05-9a154.92,154.92,0,0,1,13.25-16.22.81.81,0,0,0-.72-.19c-.88,0-1.76,0-2.63.11C100.82,53.4,98.64,53.23,98.12,53.86Z" transform="translate(-1.39 -36.61)"/><path class="cls-1" d="M98.84,56.31,92,64.47a145.26,145.26,0,0,0-9.51,13.24c-3.65,5.52-7.08,11.18-10.17,17.05a115.78,115.78,0,0,0-11,29.16,68,68,0,0,0-1.39,16.47,60.58,60.58,0,0,0,2.27,15.73A61.71,61.71,0,0,0,67,168a54.07,54.07,0,0,0,9.38,12.06,91.39,91.39,0,0,0,20.69,15.2,69.13,69.13,0,0,0,9.65,4.47l5.11,1.5q6.69,3.69,5.26-2.17c0-3.55.18-2.41-.57-5.52a23.24,23.24,0,0,0-2.36-6.08l-2-3.13-4.35-4.08c-2.79-2.84-3.57-4.6-4.53-8.79l.27,3.83c-.14-3.93,0-7.89.08-11.82a33.29,33.29,0,0,1,.33-6,37,37,0,0,1,1.6-8.66c.24-1.05-1.67,2.14-1.38,1.64-.67,1.16-1.33,2.34-2,3.52a9.79,9.79,0,0,0-.9,1.91,26.09,26.09,0,0,0-.47,8.85A55.2,55.2,0,0,0,102,174.1a32.21,32.21,0,0,0,2.51,7.51l-.36-1.93.48,3.67-.13-4.95a49.24,49.24,0,0,1-.31,8.59h.23l7.64-2.47-7.2.35,6.52,3.65-1.41-1.11,6.93,14.39-4.53-12.66q-3.76-1.47-7.51-3a83.67,83.67,0,0,1-7.92-4.51L93.05,179a75.26,75.26,0,0,0-6.53-5.83c-3.38-3.08-7.15-6.91-9.48-10.87q-2.22-4.48-4.05-9.14a44.81,44.81,0,0,1-1.91-7.9,60.74,60.74,0,0,1-.44-19.86A87.48,87.48,0,0,1,76,106.69a118.81,118.81,0,0,1,8.82-17.12,209.37,209.37,0,0,1,11.57-18,148.4,148.4,0,0,1,13.34-16,1.84,1.84,0,0,0-1.16-.15c-1.43,0-2.87.11-4.3.21s-2.87.2-4.3.34A1.71,1.71,0,0,0,98.84,56.31Z" transform="translate(-1.39 -36.61)"/><path class="cls-1" d="M97.26,53A188.16,188.16,0,0,0,84,69.83,205.18,205.18,0,0,0,72.39,88.46a142.07,142.07,0,0,0-8.61,18.83,86.66,86.66,0,0,0-4.9,20.56,68.5,68.5,0,0,0,1.48,22.25c1.68,7.23,4.54,14.58,9.15,20.5a72.41,72.41,0,0,0,12.87,12.66,110,110,0,0,0,14.2,9.29,66.5,66.5,0,0,0,9.83,4.48,43.93,43.93,0,0,0,10.25,2.34l.06-.18c.42-3.33.92-6.05.13-9.47a30.18,30.18,0,0,0-2.95-7.95L112.17,179l-2.64-2.75a28,28,0,0,1-3.52-3.78,12.07,12.07,0,0,1-2.33-3.55l.44,1.24-.84-3.29.38,3.47-.38-5.88-.17,3.55A190.29,190.29,0,0,1,106,144.21c.2-.85-1.31,1.48-1.08,1.09-.66,1.11-1.76,2.56-2,3.86a34.75,34.75,0,0,0-1.06,8.66,35.16,35.16,0,0,0,0,6.07,22.55,22.55,0,0,0,1.45,7.79,22.09,22.09,0,0,0,3.28,5,27.32,27.32,0,0,0,2.81,3.18l2,2.23c.54,1,.8,2,1.39,3q2.06,2.34-1,4.9-.86,6.5-6.41,2a87.24,87.24,0,0,1-11.64-5.93,76.19,76.19,0,0,1-10.4-7.73,84,84,0,0,1-8.09-7.92,44.85,44.85,0,0,1-8.55-15.06,67.54,67.54,0,0,1-3.19-27.3c.89-11.28,4.9-22.15,9.86-32.25a191.64,191.64,0,0,1,10.35-18l6.08-9A140.5,140.5,0,0,1,103.3,52.58a30.24,30.24,0,0,0-3-.11C99.67,52.51,97.76,52.36,97.26,53Z" transform="translate(-1.39 -36.61)"/><path class="cls-1" d="M97.33,54.3A186.32,186.32,0,0,0,84,71.16,206.25,206.25,0,0,0,72.44,89.77a140.87,140.87,0,0,0-8.61,18.78A86.45,86.45,0,0,0,58.92,129a68.12,68.12,0,0,0,1.47,22.1c1.66,7.19,4.5,14.49,9.08,20.37A71.9,71.9,0,0,0,82.14,184a111.58,111.58,0,0,0,14,9.27,65,65,0,0,0,9.7,4.47,43.15,43.15,0,0,0,10.21,2.36l0-.25c.32-4.19.75-5.16-.31-9.15a25.44,25.44,0,0,0-2.24-5.42c-1.25-2.4-3.15-4.26-4.85-6.39a55.81,55.81,0,0,1-5.36-8l.49,1.51-.94-3.47.47,4.11a103.63,103.63,0,0,1-.16-15.46,53.5,53.5,0,0,1,2.07-11.5c.22-.92-1.43,1.7-1.17,1.27-.73,1.23-2,2.92-2.26,4.37l-.86,5.68a54,54,0,0,0,.23,9.26,20.73,20.73,0,0,0,1.91,8c2.09,4.11,4.33,8.17,6.51,12.23.53.92,1,1.86,1.55,2.8q3.93,5-2.3,1.42a68.11,68.11,0,0,1-8.78-3.78,52.6,52.6,0,0,1-10.41-6.75c-3.15-2.8-6.47-5.32-9.38-8.38a57.08,57.08,0,0,1-6.86-8.34,78.33,78.33,0,0,1-3.27-7.23,24.33,24.33,0,0,1-1.88-5.44,68.37,68.37,0,0,1-1.72-26.45,73.46,73.46,0,0,1,4.33-16.12A101.64,101.64,0,0,1,77.74,93.4c2.81-5,5.81-9.84,8.84-14.65a132.68,132.68,0,0,1,9.31-13.14,112.28,112.28,0,0,1,10-11.85,1.19,1.19,0,0,0-.91-.17c-1.14,0-2.27.07-3.41.15C100.94,53.79,97.93,53.58,97.33,54.3Z" transform="translate(-1.39 -36.61)"/><path class="cls-1" d="M96.89,52.19Q93.28,56.14,90,60.35A197.46,197.46,0,0,0,77.45,78.23a173.44,173.44,0,0,0-11.61,21.88,90.83,90.83,0,0,0-7.49,27.11,69.17,69.17,0,0,0,1.48,22.36A55.38,55.38,0,0,0,69,170.21c4.23,5.71,9.7,10.39,15.42,14.54a104.11,104.11,0,0,0,11.9,7.58,67,67,0,0,0,9.92,4.49,43.15,43.15,0,0,0,10.15,2.29c.14.08.22,0,.24-.12l.71-5-.4-4.62a24.83,24.83,0,0,0-2-6.39,15.9,15.9,0,0,0-1.82-3.67,7.13,7.13,0,0,0-2.36-3c-2.78-2.71-5.39-4.92-7.38-8.45l.4,1.15-.78-3.24.34,3.24-.3-5.65-.18,3.32a213.69,213.69,0,0,1,3-23.47c.2-.81-1.24,1.36-1,1a12.18,12.18,0,0,0-1.82,3.57l-1,5.64a52.13,52.13,0,0,0-.25,9.09,25.81,25.81,0,0,0,.82,6.4,15.37,15.37,0,0,0,4.63,7.12q1.66,1.43,3.29,2.89a3.35,3.35,0,0,1,1.69,2.39c1,2.43,5.21,10,3.2,11.61l-5,1.87-4.86-1.55a70.36,70.36,0,0,1-14-7.45,97,97,0,0,1-11-8.24c-3.56-3.17-7.5-6.92-10-11a59.57,59.57,0,0,1-8.4-26A72.87,72.87,0,0,1,65.7,111.3a123.36,123.36,0,0,1,5-12.82A170.36,170.36,0,0,1,79.79,82a162.08,162.08,0,0,1,22.49-30.14,18.66,18.66,0,0,0-2.71-.12C99,51.77,97.37,51.63,96.89,52.19Z" transform="translate(-1.39 -36.61)"/><path class="cls-1" d="M98.26,55.52A178,178,0,0,0,84.88,72.38,202.61,202.61,0,0,0,73.29,91a142,142,0,0,0-8.65,18.75,86.66,86.66,0,0,0-5,20.44,68.37,68.37,0,0,0,1.38,22.05c1.64,7.21,4.47,14.48,9.05,20.38A71,71,0,0,0,82.69,185a111.8,111.8,0,0,0,14,9.28,62.71,62.71,0,0,0,9.63,4.45,41.58,41.58,0,0,0,10.27,2.33v-.33c.12-4.54.54-5.65-.85-9.88a26.23,26.23,0,0,0-2.64-5.46,5,5,0,0,0-2-2.52,15.19,15.19,0,0,1-3.17-3.33l-1.9-2.21a15.91,15.91,0,0,1-3-7l.37,3.59c-.21-3.81-.1-7.67,0-11.48a32.32,32.32,0,0,1,.38-6,36.93,36.93,0,0,1,1.63-8.64c.23-1-1.59,2-1.31,1.51-.63,1.09-1.24,2.18-1.83,3.28a9.28,9.28,0,0,0-.83,1.78,27.22,27.22,0,0,0-.62,8.85,55.2,55.2,0,0,0,.89,9.33l.64,2.49q1.2,3.63,2.73,7.15l-.29-1.75a34,34,0,0,0,.59,4.61q.06,5.55,8.12,2.1l-4.91-.88,5.69,9.46-1.82-5.55c-2.62-1-5.22-1.93-7.8-3a83.13,83.13,0,0,1-8.21-4.55A85.77,85.77,0,0,1,85.61,174c-3.51-3.18-7.41-7.13-9.83-11.23q-2.32-4.6-4.18-9.41a44.08,44.08,0,0,1-2-8.08,61.73,61.73,0,0,1-.41-20.16,88,88,0,0,1,5.4-18.88A120.14,120.14,0,0,1,83.48,89a212.08,212.08,0,0,1,11.6-18,150.33,150.33,0,0,1,13.35-16,1.6,1.6,0,0,0-1.08-.17c-1.34,0-2.68.1-4,.2s-2.68.18-4,.31A1.63,1.63,0,0,0,98.26,55.52Z" transform="translate(-1.39 -36.61)"/><path class="cls-1" d="M96.44,51.23c-15,18.18-29.11,38.23-35.61,61.18a74.08,74.08,0,0,0-2,33.67,57.06,57.06,0,0,0,10.35,24.28c4.93,6.44,11.43,11.61,18.13,16.1a96.41,96.41,0,0,0,14.47,8.21,33.87,33.87,0,0,0,5.17,2A42.24,42.24,0,0,0,117.66,199a.27.27,0,0,0,.17-.29c.54-4.47,1.08-5.88.06-10.36a40.33,40.33,0,0,0-2.36-7.11,21.2,21.2,0,0,0-3-5.36l-2.77-2.46a21.74,21.74,0,0,1-6.14-6.8l.56,1.93-.9-4,.26,2.8-.15-5.18-.19,2.92q1.19-11.52,3.21-22.92c.19-.76-1.15,1.21-1,.89a11.06,11.06,0,0,0-1.62,3.24c-1.18,6.44-2.18,13.14-1.17,19.69a11.52,11.52,0,0,0,1.5,4.65,12.48,12.48,0,0,0,3.36,3.2l2.25,1.46a12.88,12.88,0,0,1,5.53,8.68q3.53,4.56-.92,8.2c-.66,3.71-2.31,4.74-5,3.09a32.57,32.57,0,0,1-12-5.8,60.13,60.13,0,0,1-14.2-8.47A78,78,0,0,1,74.47,173a52.26,52.26,0,0,1-7.19-10,53.8,53.8,0,0,1-5.45-15.42,34.61,34.61,0,0,1-.78-12.8,34.75,34.75,0,0,1,.49-13.14A104.92,104.92,0,0,1,72,92,204.92,204.92,0,0,1,83.86,72.32a246.43,246.43,0,0,1,16.11-21c.38-.45-.87-.36-.92-.36C98.56,50.94,96.81,50.79,96.44,51.23Z" transform="translate(-1.39 -36.61)"/><path class="cls-1" d="M97.39,52.31a242.83,242.83,0,0,0-19.22,26c-3.09,5-6.2,10.39-8.8,15.7-6.07,12.4-10.61,25.9-10.69,39.83a64.6,64.6,0,0,0,4.72,25.29A55.74,55.74,0,0,0,78.12,179.4,97.6,97.6,0,0,0,97,192.46a66.62,66.62,0,0,0,9.9,4.46,43.87,43.87,0,0,0,10.3,2.3l.07-.16.7-4.93-.42-4.58a24,24,0,0,0-2-6.28,20.19,20.19,0,0,0-4.11-6.57c-2.77-2.76-5.34-5-7.34-8.56l.4,1.14-.79-3.21.34,3.24-.3-5.65-.19,3.36a218.63,218.63,0,0,1,3-23.49c.2-.84-1.28,1.43-1.06,1.06a12.94,12.94,0,0,0-1.92,3.75c-1.09,6.47-2.14,13.46-.53,19.95a14.7,14.7,0,0,0,3,6.12,39.85,39.85,0,0,0,4,4,6.72,6.72,0,0,1,3.18,4.62q4.23,5.61-2.2,11.46a37.32,37.32,0,0,1-7.14-2.5A86.16,86.16,0,0,1,83.57,179.5a68.38,68.38,0,0,1-8.41-8,33.36,33.36,0,0,1-6.5-9.6,60.5,60.5,0,0,1-6.19-24c-1.7-32.23,19-61.58,39.4-85.65.42-.49-1.13-.33-1.16-.33C100.13,52,97.83,51.79,97.39,52.31Z" transform="translate(-1.39 -36.61)"/><path class="cls-1" d="M97.06,53.52A198.25,198.25,0,0,0,72.25,89a140.54,140.54,0,0,0-8.61,18.8,86.19,86.19,0,0,0-4.9,20.5,68.51,68.51,0,0,0,1.48,22.16c1.67,7.21,4.52,14.51,9.1,20.41a71.84,71.84,0,0,0,12.75,12.56,110,110,0,0,0,14.1,9.29,66.12,66.12,0,0,0,9.75,4.49,43.82,43.82,0,0,0,10.22,2.35l0-.21c.36-3.34.71-6.07,0-9.31a25.4,25.4,0,0,0-3.75-8.57,27.91,27.91,0,0,0-3.36-4,42.13,42.13,0,0,1-5.72-7.68l.46,1.38-.89-3.39.44,3.78a109.41,109.41,0,0,1,0-15A55.91,55.91,0,0,1,105.47,145c.21-.88-1.36,1.57-1.12,1.16-.68,1.16-1.86,2.7-2.08,4.07a32.13,32.13,0,0,0-1,8.72,34,34,0,0,0,.11,6.14,23.57,23.57,0,0,0,1.68,7.92,39.18,39.18,0,0,0,4.05,6.52l1.78,2.4,1.84,2.52c.05.25.1.49.17.73a3.36,3.36,0,0,0,1.55,2l.92,6.45-4-1.2a65.29,65.29,0,0,1-13.68-6.25l-4.48-2.79c-1.86-1.58-3.73-3.13-5.63-4.66a65.72,65.72,0,0,1-9.81-9.49l-3.4-4.5a63.36,63.36,0,0,1-3.48-7.47c-3.9-9.33-4.88-19.49-4-29.51.91-11.12,5-21.9,9.92-31.81A196,196,0,0,1,85.14,78.2l6.07-9a154.46,154.46,0,0,1,13.25-16.18,1,1,0,0,0-.79-.18c-1,0-2,0-2.92.12C100.11,53,97.61,52.86,97.06,53.52Z" transform="translate(-1.39 -36.61)"/><path class="cls-1" d="M101.66,169.58c1.64,6.74,3.91,13.44,8.76,18.63,5.44,5.83,13.18,8.44,21,8.79a74.07,74.07,0,0,0,22.73-2.36,47.71,47.71,0,0,0,12.46-5.22c4.9-3,8.72-7,12.47-11.27.17-.21-3.61-1.32-3.5-1.29-.35-.1-3.18-1.22-3.66-.72a28.64,28.64,0,0,1-5.31,5,22,22,0,0,1-4,2.8,41.87,41.87,0,0,1-11,4.82,70.38,70.38,0,0,1-12.58,2,10.13,10.13,0,0,1-4.21,0q-2.76-.37-5.53-.52a39.58,39.58,0,0,1-7.81-2c-3.25-1.22-5.22-3.06-7.51-5.49-5.06-5.32-7-12.1-8.4-19.15a.84.84,0,0,0-.6.49c-.55.74-1.09,1.5-1.59,2.28C103,167,101.46,168.78,101.66,169.58Z" transform="translate(-1.39 -36.61)"/><path class="cls-1" d="M101.54,171.75c1.61,6.84,3.83,13.6,8.74,18.86,5.46,5.85,13.2,8.35,21,8.61a74.38,74.38,0,0,0,22.38-2.46A46.23,46.23,0,0,0,166,191.51c4.79-3,8.5-6.93,12.14-11.21.12-.14-5.74-2.2-5.62-2.16-1.5-.51-3-1-4.52-1.44a2.08,2.08,0,0,0-1.27-.17,23.46,23.46,0,0,1-5.14,4.07,22.54,22.54,0,0,1-3.8,2.21,38.44,38.44,0,0,1-10.33,3.56,57.35,57.35,0,0,1-11.25.93,6.83,6.83,0,0,1-3.56-.35,19.27,19.27,0,0,0-4.46-.82,36.12,36.12,0,0,1-6.16-2c-2.56-1.14-4.15-3-5.93-5.08-4.53-5.18-6-11.93-7.06-18.54a2.71,2.71,0,0,0-1,1.06c-1,1.45-2,2.93-3,4.42s-2,3-2.91,4.48A2.61,2.61,0,0,0,101.54,171.75Z" transform="translate(-1.39 -36.61)"/><path class="cls-1" d="M100.88,168.89c1.56,6.87,3.81,13.55,8.73,18.82,5.51,5.89,13.35,8.54,21.26,8.89a74.76,74.76,0,0,0,23-2.48,47.74,47.74,0,0,0,12.51-5.29l4.63-3.26a48.42,48.42,0,0,0,7.9-8.16c.21-.24-2.58-1-2.5-1-.34-.09-2.25-.86-2.66-.42a61,61,0,0,1-7.37,7.09,38.9,38.9,0,0,1-11.2,5.9,60.4,60.4,0,0,1-9.86,2.42,45.3,45.3,0,0,1-5.56.76,17.23,17.23,0,0,1-6.16,0,52.53,52.53,0,0,1-8.49-1.05l-4.24-1.34-4-1.91a27.79,27.79,0,0,1-6.79-7.06c-3.54-5-5-10.21-6.09-16.57a22.19,22.19,0,0,0-1.78,2.14C101.85,166.92,100.72,168.18,100.88,168.89Z" transform="translate(-1.39 -36.61)"/><path class="cls-1" d="M100.71,169.8c1.58,6.8,3.81,13.49,8.7,18.72,5.44,5.81,13.1,8.33,20.89,8.69a74.09,74.09,0,0,0,22.59-2.3,47,47,0,0,0,12.43-5.16l4.58-3.18a48.55,48.55,0,0,0,7.89-8c.18-.19-3.64-1.32-3.54-1.29-.36-.11-3.19-1.24-3.69-.74a28.61,28.61,0,0,1-5.44,4.87,21.28,21.28,0,0,1-4.06,2.71,41.25,41.25,0,0,1-11.12,4.51,70.79,70.79,0,0,1-12.55,1.69,8.56,8.56,0,0,1-4.15-.13,43.93,43.93,0,0,0-5.35-.78,38.58,38.58,0,0,1-7.43-2.25c-3.09-1.31-4.85-3.22-7-5.62-4.82-5.39-6.62-12.16-7.83-19.13a1.32,1.32,0,0,0-.71.65c-.68.95-1.35,1.91-2,2.89C102.56,166.51,100.5,168.87,100.71,169.8Z" transform="translate(-1.39 -36.61)"/><path class="cls-1" d="M100.22,168.53c1.32,5.3,2.94,10.86,6.19,15.37a29.61,29.61,0,0,0,8.16,7.85,30.84,30.84,0,0,0,13.78,4.39,69.19,69.19,0,0,0,23-1.65,48.9,48.9,0,0,0,15.16-6.12l4.64-3.31a48.83,48.83,0,0,0,7.91-8.28c.23-.27-2-.82-1.89-.81-.33-.08-1.68-.64-2-.24a43.83,43.83,0,0,1-7.41,7.5,44.56,44.56,0,0,1-9,5.46,59.36,59.36,0,0,1-24.57,4.59c-7.43-.14-14.83-1.59-20.68-6.64-6.26-5.39-9.09-13.37-10.88-21.16-.14-.59-.86.55-.89.59C101.39,166.48,100.08,167.94,100.22,168.53Z" transform="translate(-1.39 -36.61)"/><path class="cls-1" d="M101.24,170.85c1.58,6.83,3.79,13.55,8.7,18.8,5.43,5.8,13.11,8.27,20.89,8.57a74.8,74.8,0,0,0,22.35-2.37,46.67,46.67,0,0,0,12.32-5.17l4.52-3.17a48.52,48.52,0,0,0,7.73-8c.14-.17-4.91-1.88-4.79-1.84-.37-.12-4.37-1.83-5-1.29a25.05,25.05,0,0,1-5.23,4.36,22.2,22.2,0,0,1-3.89,2.39,39.28,39.28,0,0,1-10.62,3.9,61,61,0,0,1-11.67,1.19,7.64,7.64,0,0,1-3.77-.28,26.66,26.66,0,0,0-4.78-.8,36.86,36.86,0,0,1-6.59-2.09c-2.74-1.2-4.42-3.12-6.33-5.28-4.64-5.26-6.23-12-7.35-18.78a2,2,0,0,0-.87.9q-1.35,1.9-2.63,3.85t-2.53,3.91A2,2,0,0,0,101.24,170.85Z" transform="translate(-1.39 -36.61)"/><path class="cls-1" d="M100,168.49c1.51,5.46,3.37,10.77,6.55,15.51a27.16,27.16,0,0,0,10.71,9.15,38.09,38.09,0,0,0,12,2.86A71.94,71.94,0,0,0,155,193.38a47.78,47.78,0,0,0,12.48-5.53l4.6-3.35a48.39,48.39,0,0,0,7.88-8.36c.06-.08-2.47-1.33-3-.75l-3.44,4.11a31.81,31.81,0,0,1-6,5.21,42.85,42.85,0,0,1-9.07,5.06,64.47,64.47,0,0,1-24.56,4.28c-7,0-14.33-1.29-20-5.68l-3.32-3.08-4.87-7.14a59.59,59.59,0,0,1-4.25-11.37C101.31,166.23,99.88,168,100,168.49Z" transform="translate(-1.39 -36.61)"/><path class="cls-1" d="M100.93,168.77a50.12,50.12,0,0,0,5.1,13.47A28.07,28.07,0,0,0,126.61,196,72.57,72.57,0,0,0,152,194.57a46.53,46.53,0,0,0,15.1-6.1l4.63-3.29a48,48,0,0,0,7.89-8.23c.22-.26-2.31-.92-2.23-.9-.33-.09-2-.76-2.39-.34a42.55,42.55,0,0,1-7.3,7.33,43.39,43.39,0,0,1-8.89,5.35,59.62,59.62,0,0,1-24.16,4.6c-7.31-.07-14.59-1.38-20.41-6.28-6.29-5.3-9.13-13.24-10.92-21-.14-.59-.86.55-.88.59C102.09,166.73,100.78,168.19,100.93,168.77Z" transform="translate(-1.39 -36.61)"/><path class="cls-1" d="M100.57,169.29c1.64,6.76,3.91,13.46,8.76,18.66,5.45,5.83,13.2,8.45,21,8.83a74.21,74.21,0,0,0,22.8-2.36,47.23,47.23,0,0,0,12.49-5.22c4.92-3,8.75-7,12.51-11.3.19-.22-3-1.11-2.89-1.08-.35-.1-2.6-1-3-.53a30.16,30.16,0,0,1-5.45,5.2,20.54,20.54,0,0,1-4.09,2.91,41.82,41.82,0,0,1-11.32,4.94,72.45,72.45,0,0,1-12.91,2,40.43,40.43,0,0,1-10.06-.63,38.72,38.72,0,0,1-8-2.21c-3.31-1.33-5.27-3.24-7.59-5.76-5-5.45-7-12.27-8.34-19.38a.87.87,0,0,0-.6.49c-.56.75-1.09,1.51-1.6,2.29C102,166.7,100.37,168.49,100.57,169.29Z" transform="translate(-1.39 -36.61)"/><path class="cls-1" d="M130,76.61q1.31,17.63,2.63,35.25.81,11.52,1.83,23a66.16,66.16,0,0,0,4.06,18.28A53.75,53.75,0,0,0,149.32,170a61.6,61.6,0,0,0,9,7.77,59.7,59.7,0,0,0,10.53,5.89c.23.12.22-3.65.22-3.55,0-.38.25-3.2-.35-3.53a51.35,51.35,0,0,1-9.25-5.77,52.53,52.53,0,0,1-7.87-7.48,51.23,51.23,0,0,1-9.38-16.09,74.63,74.63,0,0,1-3.65-18c-2-19.21-3-38.56-4-57.84a.87.87,0,0,0-.65.4c-.64.67-1.25,1.35-1.85,2.05C131.59,74.28,129.9,75.76,130,76.61Z" transform="translate(-1.39 -36.61)"/><path class="cls-1" d="M130,78.73q1.25,17.72,2.59,35.43.83,11.5,1.83,23a66.24,66.24,0,0,0,4,18.3,53.81,53.81,0,0,0,10.78,16.86A58.49,58.49,0,0,0,168.64,186a2.81,2.81,0,0,0,.26-1.44c.08-1.82.14-3.63.17-5.45s.06-3.64.05-5.46a2.64,2.64,0,0,0-.2-1.45,41.41,41.41,0,0,1-8.07-5.57,43.76,43.76,0,0,1-6.87-7.07,49.25,49.25,0,0,1-8.3-15.3,82.72,82.72,0,0,1-3.4-17.72c-2-19.21-2.89-38.52-3.69-57.79a2.48,2.48,0,0,0-1.08.9c-1.18,1.28-2.33,2.59-3.46,3.91s-2.27,2.65-3.37,4A2.59,2.59,0,0,0,130,78.73Z" transform="translate(-1.39 -36.61)"/><path class="cls-1" d="M129.16,75.9q1.14,17.59,2.53,35.17.81,11.52,1.83,23a72.9,72.9,0,0,0,3,15.9,53.6,53.6,0,0,0,12,19.46,59.38,59.38,0,0,0,19.65,13.74c.29.14.24-2.64.24-2.55,0-.39.18-2.26-.35-2.55a55.77,55.77,0,0,1-9.67-5.94,54.76,54.76,0,0,1-16.94-21.68c-2.79-6.55-3.85-13.43-4.61-20.49q-1.07-11.5-1.85-23-1.52-17.59-2.2-35.24a24.1,24.1,0,0,0-2,1.91C130.36,74.07,129.11,75.15,129.16,75.9Z" transform="translate(-1.39 -36.61)"/><path class="cls-1" d="M129.06,76.85q1.2,17.69,2.56,35.35.81,11.52,1.83,23a66,66,0,0,0,4.05,18.26,53.74,53.74,0,0,0,10.81,16.77,61.3,61.3,0,0,0,9,7.76,59.9,59.9,0,0,0,10.49,5.87,33.91,33.91,0,0,0,.24-4.26c0-.4.31-3.87-.35-4.25a49.07,49.07,0,0,1-8.92-5.9,51.05,51.05,0,0,1-7.54-7.52,51.59,51.59,0,0,1-8.93-16,79.66,79.66,0,0,1-3.53-18c-2-19.2-3-38.53-3.88-57.81a1.31,1.31,0,0,0-.78.55c-.8.86-1.58,1.73-2.33,2.62C131.26,73.85,129,75.86,129.06,76.85Z" transform="translate(-1.39 -36.61)"/><path class="cls-1" d="M128.49,75.44q1.35,17.61,2.69,35.23c.59,7.67,1,15.36,1.83,23,.54,5.28,1.25,10.79,3.05,15.82a55.29,55.29,0,0,0,10.13,17.4,59.88,59.88,0,0,0,8.66,8.26A73,73,0,0,0,167.94,183c.32.15.26-1.91.26-1.85,0-.37.14-1.58-.33-1.83a58.52,58.52,0,0,1-10-6,61.29,61.29,0,0,1-8.47-7.87,57.07,57.07,0,0,1-9-14.22c-2.86-6.66-4-13.56-4.69-20.66q-1.07-11.5-1.85-23-1.38-17.42-2.52-34.85c-.05-.62-1,.48-1,.49C129.93,73.52,128.44,74.8,128.49,75.44Z" transform="translate(-1.39 -36.61)"/><path class="cls-1" d="M129.63,77.88q1.2,17.72,2.56,35.43.83,11.5,1.83,23a66,66,0,0,0,4,18.27,53.34,53.34,0,0,0,10.78,16.78,61.68,61.68,0,0,0,8.94,7.75A60.6,60.6,0,0,0,168.25,185c.13.07.38-6,.37-5.87,0-1.55,0-3.1,0-4.65a2,2,0,0,0-.21-1.24,44.06,44.06,0,0,1-8.37-5.68,46.24,46.24,0,0,1-7.1-7.23,50,50,0,0,1-8.51-15.56,81.12,81.12,0,0,1-3.45-17.8c-2-19.22-2.91-38.55-3.77-57.84a2,2,0,0,0-1,.77c-1,1.13-2.05,2.28-3,3.44s-2,2.33-3,3.52A2.05,2.05,0,0,0,129.63,77.88Z" transform="translate(-1.39 -36.61)"/><path class="cls-1" d="M128.15,75.36Q129.7,93,131,110.61c.59,7.66,1,15.35,1.83,23,.73,7.21,2,14.57,5.29,21.11a57.83,57.83,0,0,0,8.23,12.22,59,59,0,0,0,8.84,8.24,73.45,73.45,0,0,0,13.3,7.75c.26.12.81-2,.27-2.27a61.28,61.28,0,0,1-10.46-5.86l-4.66-3.69A52.76,52.76,0,0,1,137,144.94a91.23,91.23,0,0,1-2.5-15.76q-.88-10.2-1.6-20.4-1.08-17.52-3-35C129.8,73.28,128.1,74.86,128.15,75.36Z" transform="translate(-1.39 -36.61)"/><path class="cls-1" d="M129.18,75.7q1.37,17.61,2.69,35.22.81,11.52,1.84,23a71.68,71.68,0,0,0,3.07,15.89,53.9,53.9,0,0,0,12.05,19.53,62.59,62.59,0,0,0,9.13,7.83,61.23,61.23,0,0,0,10.69,5.92c.31.15.25-2.05.25-2,0-.37.14-1.72-.33-2a57.06,57.06,0,0,1-10-5.89,59.23,59.23,0,0,1-8.47-7.74,56.14,56.14,0,0,1-9.1-14.08c-2.9-6.64-4-13.52-4.73-20.61q-1.06-11.5-1.85-23Q133.07,90.39,131.91,73c0-.62-.94.47-.95.48C130.58,73.82,129.13,75.07,129.18,75.7Z" transform="translate(-1.39 -36.61)"/><path class="cls-1" d="M128.88,76.31q1.31,17.64,2.63,35.27.81,11.52,1.83,23a65.8,65.8,0,0,0,4.06,18.28,53.65,53.65,0,0,0,10.84,16.81,61.82,61.82,0,0,0,9,7.79,60.39,60.39,0,0,0,10.53,5.9c.25.12.23-3.41.23-3.3,0-.4.23-3-.35-3.3a52.86,52.86,0,0,1-9.32-6,54.28,54.28,0,0,1-7.86-7.67,52.36,52.36,0,0,1-9.29-16.31,77.62,77.62,0,0,1-3.6-18.07c-2-19.21-3-38.56-4-57.85a.86.86,0,0,0-.66.42c-.65.68-1.28,1.37-1.89,2.09C130.56,73.92,128.81,75.45,128.88,76.31Z" transform="translate(-1.39 -36.61)"/><path class="cls-1" d="M144.69,171.94a8.13,8.13,0,0,0,2.11,4.15,28.1,28.1,0,0,0,4.38,3.84c1.64,1.17,3.34,2.26,5.08,3.28q10,6.87,20.55,12.93Q187.15,202,198,206.93q4.31,1.71,8.5,3.65a33.68,33.68,0,0,1,9.66,6.47,16,16,0,0,1,4.18,8l-.34-3.48.33,5.76.32-5.79-.92,8.5,1.05-5.47-2.17,8.09,1.8-5.13L217,235.09l2.41-4.67-4.27,7,3-4.24-5,6.35,2.66-3c-4.09,4.19-8,8.6-12.71,12.14a44.82,44.82,0,0,1-11.67,6.6A57.87,57.87,0,0,1,179,260.58c-7.13,2.27-14.34,4.33-21.63,6-8.44,2-16.88,3.8-25.29,5.91-.83.21,1.65.93,1.39.84,1,.31,1.92.6,2.89.87a5.79,5.79,0,0,0,1.54.32c14.88-4.08,30.05-7.35,44.45-13,9.12-3.56,18-8.33,25.19-15,1.45-1.34,2.94-2.74,4.26-4.21l3.18-3.87a18,18,0,0,0,3-5.45c1.9-3.57,2.67-3.91,2.92-6.81a32.07,32.07,0,0,0,.21-4.6c-.28-4.39-3.48-8.61-6.54-11.5-4-3.74-9-6.13-13.86-8.48-6.42-3.11-12.82-6.25-19.05-9.74q-7.59-4.11-14.77-8.92l-10.46-6.83a27,27,0,0,1-5-4.58l-1.19-1.5a6.44,6.44,0,0,1-1.11-3.48c0-.13-2.5,2.55-2.45,2.5C146.43,169.4,144.47,171.27,144.69,171.94Z" transform="translate(-1.39 -36.61)"/><path class="cls-1" d="M144.66,174.07a8.78,8.78,0,0,0,2.09,4.33,20.24,20.24,0,0,0,4.41,3.95q2.49,1.72,5.11,3.25,9.84,6.92,20.3,12.89t21.17,10.79q4.32,1.71,8.52,3.66a38.56,38.56,0,0,1,7.42,4.46,19.75,19.75,0,0,1,4.33,4.74l-.22-.33a13.73,13.73,0,0,1,2.19,5.57l-.61-6.65.65,9.54.33-13.27-2.18,18.34,3.17-11.21L217,236.62l4.16-9.32-5.84,11.56,5.3-8.53-26.16,26.32a70.24,70.24,0,0,1-7.15,3.46,122.43,122.43,0,0,1-12.53,4.56c-13.87,4.34-28.12,7.21-42.2,10.79a1.47,1.47,0,0,0,.91.52c1.2.42,2.41.82,3.64,1.18,1,.33,3.48,1.49,4.71,1.14,24.11-6.86,50.76-11.89,68.88-30.65,4.63-4.79,8.21-10.15,9.38-16.88.42-2.44.8-4.9,1.14-7.35a13.92,13.92,0,0,0,.28-3.64,18.72,18.72,0,0,0-1.64-4.62,24.51,24.51,0,0,0-4.83-6.88c-4.45-4.66-10-7.75-15.58-10.85-7.63-4.24-15.41-8.05-22.82-12.72l-9.38-6.09a54.74,54.74,0,0,1-9.88-7.16,16.66,16.66,0,0,1-2.59-3.09l-.93-1.31a5.49,5.49,0,0,1-.7-3.2,2.54,2.54,0,0,0-1.06.92q-1.74,2-3.4,4t-3.3,4.08A2.5,2.5,0,0,0,144.66,174.07Z" transform="translate(-1.39 -36.61)"/><path class="cls-1" d="M143.89,171.24a8.17,8.17,0,0,0,2.05,4.27,23.85,23.85,0,0,0,4.4,3.93q2.5,1.77,5.17,3.32,10.06,6.88,20.64,13,10.38,5.91,21.27,10.78,4.31,1.71,8.53,3.64a27.67,27.67,0,0,1,9.68,6.5,15.54,15.54,0,0,1,4.11,8.06l-.26-2.51.22,4.93.31-4.24-1,7,.85-4-2.07,6.64,1.42-3.79L216.51,234l1.53-2.76-3.38,5,1.89-2.52A91.32,91.32,0,0,1,202,248,81.77,81.77,0,0,1,178,259.68c-7.13,2.22-14.32,4.28-21.6,6-8.43,1.94-16.87,3.77-25.26,5.87-.81.2,1.55.9,1.29.82.9.29,1.81.56,2.72.81a4.92,4.92,0,0,0,1.46.29c16.42-4.49,33.45-7.88,49.09-14.8a78.58,78.58,0,0,0,18.07-10.76,62.07,62.07,0,0,0,5.83-5.17l3.54-4A23,23,0,0,0,217,234.3a29.75,29.75,0,0,0,1.46-2.8,18.11,18.11,0,0,0,1.82-5.22,16.33,16.33,0,0,0-.47-6.63c-1.65-5.6-6.67-9.72-11.5-12.51-3.74-2.17-7.74-3.86-11.66-5.68a270.11,270.11,0,0,1-30.5-17c-5-3.18-11.15-6.55-15.45-11.07a12.5,12.5,0,0,1-2.11-2.63,7.64,7.64,0,0,1-1.14-3.83c0-.21-2.06,2-2,1.95C145.16,169.25,143.7,170.61,143.89,171.24Z" transform="translate(-1.39 -36.61)"/><path class="cls-1" d="M143.78,172.18a8,8,0,0,0,2.07,4.23,23.2,23.2,0,0,0,4.37,3.84c1.63,1.14,3.31,2.2,5,3.2q7.45,5.28,15.34,9.88A252.7,252.7,0,0,0,201.2,209a73.23,73.23,0,0,1,8.07,3.92,18.11,18.11,0,0,1,9.94,12.47l-.39-4.1.39,6.29.32-6.92-.88,9.61,1.21-6.67-2.3,9.26,2.13-6.39-3.64,8.77L219,229.3l-4.74,8.19L218,232l-5.72,7.59,3.37-3.93-5.53,5.93a67.18,67.18,0,0,1-24.36,16.6,129,129,0,0,1-12.58,4.38c-13.8,4.16-27.91,7-41.87,10.49-.23.06-.31.09-.08.26a9.18,9.18,0,0,0,2.76,1c1.12.35,2.25.68,3.38,1a3,3,0,0,0,1.53.2c14-3.91,28.41-7.06,42-12.44a84.67,84.67,0,0,0,23.84-13.76l4-3.73A27.38,27.38,0,0,0,216,234.88c2.88-5.31,3.58-4.81,3.83-8.72.2-3.16.6-6.07-.78-9-4.1-8.82-13.28-13.17-21.51-17.34-7.43-3.76-14.77-7.58-21.92-11.84q-7.53-4.62-14.8-9.63a28.65,28.65,0,0,1-5.88-4.13,23.62,23.62,0,0,1-3.53-3.88,9.16,9.16,0,0,1-1.91-5,1.3,1.3,0,0,0-.77.57c-.79.87-1.55,1.76-2.29,2.66C146.1,168.93,143.54,171.41,143.78,172.18Z" transform="translate(-1.39 -36.61)"/><path class="cls-1" d="M143.25,171a8.3,8.3,0,0,0,2.18,4.22,30.11,30.11,0,0,0,4.5,3.94c1.71,1.21,3.47,2.35,5.28,3.4q7.57,5.26,15.55,9.9,7.65,4.76,15.72,8.75,9.42,4.77,19.21,8.68c7.3,3.56,13.44,7.57,13.77,17.16l.26-3.14-.95,5.22.56-2.37-1.78,5,.89-2.2-6.55,8.71,1.7-1.74c-5.92,5.45-11.78,11.16-18.84,15.09s-14.18,6.38-22.3,8.85c-13.72,4.16-27.82,6.79-41.72,10.27-.78.19,1.42.86,1.18.78.83.27,1.67.52,2.51.75a4.09,4.09,0,0,0,1.34.26c17.13-4.68,34.94-8.11,51.17-15.56a82.2,82.2,0,0,0,9-4.71,59.16,59.16,0,0,0,8.46-6,49,49,0,0,0,7.54-7.35L210,240.49c4.33-3.56,8.82-7.66,9.88-13.44a14.46,14.46,0,0,0-1.29-9c-4.07-8.55-13.91-11.77-21.91-15.39q-10.69-4.89-20.86-10.81-11.73-6.94-22.87-14.79c-3.25-2.62-6-5.09-7.07-9.31-.08-.3-1.61,1.48-1.55,1.41C144.1,169.49,143.08,170.42,143.25,171Z" transform="translate(-1.39 -36.61)"/><path class="cls-1" d="M144.34,173.21a8.4,8.4,0,0,0,2.08,4.29,20.82,20.82,0,0,0,4.38,3.89c1.65,1.12,3.33,2.19,5.06,3.18q9.85,6.93,20.32,12.91t21.14,10.78q4.31,1.69,8.49,3.65a39.07,39.07,0,0,1,7.42,4.46,20.18,20.18,0,0,1,4.34,4.74l-.19-.28a14.13,14.13,0,0,1,2.23,5.58l-.52-5.66.57,8.55.26-10.4L219.07,231l1.49-9.1L218,233.57l2.66-8.73-4.1,11.09,3.72-8-5.44,10.31,4.73-7.38-6.66,9.52,4.3-5.25a56.94,56.94,0,0,1-14.89,14.06,39.15,39.15,0,0,1-13.24,9.15,117.51,117.51,0,0,1-15,5.57c-13.88,4.29-28.11,7.15-42.18,10.71a1.34,1.34,0,0,0,.86.51c1.15.4,2.31.78,3.48,1.13s3.32,1.42,4.51,1.09c23.84-6.77,50.28-11.64,68.48-29.85,4.71-4.7,9.19-10.59,10.45-17.31.39-2.09.73-4.18,1.05-6.28a9.65,9.65,0,0,0-.43-5.89c-3.08-9.68-12.63-15-21-19.48-7.76-4.21-15.64-8.06-23.15-12.75l-9.49-6.13a54.38,54.38,0,0,1-10.26-7.3,18.41,18.41,0,0,1-2.91-3.37l-1-1.38a5.85,5.85,0,0,1-.77-3.32,2,2,0,0,0-.95.79q-1.53,1.72-3,3.51c-1,1.17-2,2.37-2.9,3.58A2,2,0,0,0,144.34,173.21Z" transform="translate(-1.39 -36.61)"/><path class="cls-1" d="M142.89,170.72c.31.74.59,1.59,1,2.31,1.09,2.11,3.34,3.81,5.21,5.21a54,54,0,0,0,5.5,3.58c3.95,2.28,7.59,5,11.45,7.45,2.88,1.8,7.47,4.51,10.42,6.17L186.91,201l10.81,5.12c3.6,1.51,7.25,2.82,10.71,4.65,6.21,3.3,11.36,7.12,11.31,16.21l.2-1.43a15.63,15.63,0,0,1-2.24,5.16,24.35,24.35,0,0,1-3.56,4.53c-1.57,1.5-3.17,3-4.8,4.37a70,70,0,0,1-22,14.72A171.2,171.2,0,0,1,164,261.83c-11.06,2.93-22.34,5-33.44,7.78-.7.17,1.1.75.9.69.75.25,2.22.95,3,.73,8.29-2.22,16.65-4.15,24.93-6.36,6.23-1.67,12.36-3.57,18.47-5.63,8.72-3,17.35-6.91,24.67-12.56a134.85,134.85,0,0,0,12.07-10.57c2.45-2.41,5.3-5.8,5.68-9.38.8-7.39-4-13.4-10.14-17A78.89,78.89,0,0,0,200,204.84a122.48,122.48,0,0,1-12.84-6l-30.64-18.43a49.31,49.31,0,0,1-7.55-5.35l-2-1.91a11.39,11.39,0,0,1-2.47-4C144.28,168.53,142.75,170.36,142.89,170.72Z" transform="translate(-1.39 -36.61)"/><path class="cls-1" d="M144,171.22a8.17,8.17,0,0,0,2.18,4.19,29.43,29.43,0,0,0,4.51,3.91q2.56,1.8,5.28,3.36,10.1,6.9,20.71,13Q187,201.52,198,206.39q4.25,1.67,8.41,3.54c7.31,3.49,13.46,7.67,13.81,17.19l.27-3.35-.95,5.43.59-2.49-1.79,5.14.92-2.29-6.63,8.9,1.67-1.72A97.13,97.13,0,0,1,204,245.46a38.89,38.89,0,0,1-10.92,7.64A102.07,102.07,0,0,1,178.25,259c-7.17,2.3-14.33,4.4-21.67,6.08-8.41,1.92-16.84,3.74-25.21,5.83-.75.19,1.28.83,1.06.75.83.29,2.59,1.16,3.5.91,17.11-4.64,34.82-8,51.08-15.28a83.65,83.65,0,0,0,9.24-4.72,61.31,61.31,0,0,0,8.58-6,51.05,51.05,0,0,0,7.67-7.39l-1.81,1.61c4.38-3.61,8.89-7.75,9.93-13.61a15,15,0,0,0-1.43-9.47c-2.12-4.28-5.79-7.27-9.85-9.61a81.4,81.4,0,0,0-8-3.88q-7.41-3.13-14.54-6.86-10.44-5.37-20.3-11.75-6.59-4-12.84-8.47c-3.25-2.44-6.05-5-7.14-9-.08-.31-1.58,1.45-1.52,1.38C144.77,169.78,143.77,170.69,144,171.22Z" transform="translate(-1.39 -36.61)"/><path class="cls-1" d="M143.6,171.64a8.07,8.07,0,0,0,2.11,4.18,28.7,28.7,0,0,0,4.39,3.85c1.64,1.16,3.33,2.26,5.07,3.28q10,6.88,20.56,13,10.35,5.91,21.21,10.79,4.31,1.71,8.49,3.65a33.54,33.54,0,0,1,9.68,6.48,15.9,15.9,0,0,1,4.17,8.05l-.31-3.2.3,5.51.32-5.4-.93,8.1,1-5.19-2.17,7.79,1.76-4.95L216,234.84l2.39-4.59-4.26,6.84,3-4.24-5,6.33,2.72-3.08c-4,4.11-8,8.77-12.72,12.16l-19,10.22c-2.48,1-5,1.81-7.56,2.54-6.34,1.9-12.64,3.76-19.09,5.26-8.44,2-16.9,3.8-25.3,5.91-.88.22,1.84,1,1.56.9,1.08.34,2.16.67,3.24,1a6.85,6.85,0,0,0,1.73.37C162.27,267.59,190.12,263,208.9,244a68.25,68.25,0,0,0,8-10,18.81,18.81,0,0,0,3.08-9.5,16.06,16.06,0,0,0,0-3.25,16.43,16.43,0,0,0-3.1-7c-3.42-4.77-8.17-7.61-13.3-10.29-5.92-3.1-12-5.79-17.94-9q-7.69-4-15-8.78-7.8-4.86-15.39-10a29.86,29.86,0,0,1-5-4.9l-1.15-1.57a6.78,6.78,0,0,1-1-3.58c0-.12-2.54,2.6-2.51,2.55C145.38,169.05,143.38,171,143.6,171.64Z" transform="translate(-1.39 -36.61)"/><path class="cls-1" d="M142,288.08c17.66.86,35.5,1.82,53.07-.8,10.13-1.51,20.27-4.68,29-10.11a44.31,44.31,0,0,0,10.36-8.44,51.5,51.5,0,0,0,6.91-10.21,42.46,42.46,0,0,0,4.09-11.71l.57-5a37,37,0,0,0-.83-9.95c0-.23-3.22,2.15-3.14,2.09-.45.35-2.75,1.72-2.78,2.54-.13,4-.16,8.08-1.32,12a44.72,44.72,0,0,1-3.26,7.95,42,42,0,0,1-8,10.47l-3.35,3q-3.13,2-6.39,3.71c-7.83,4.34-16.5,6.69-25.31,8.07-18.15,2.85-36.7,1.93-54.93.55a1,1,0,0,0,.38.77c.66.8,1.34,1.59,2.05,2.36C139.57,285.84,141.07,288,142,288.08Z" transform="translate(-1.39 -36.61)"/><path class="cls-1" d="M141.41,290.37c17.69.92,35.57,1.89,53.16-.78,10.07-1.53,20.15-4.74,28.77-10.19a42.93,42.93,0,0,0,10.18-8.47,50.68,50.68,0,0,0,6.68-10.08,41.58,41.58,0,0,0,3.92-11.48l.53-4.87a37,37,0,0,0-.81-9.73,49.32,49.32,0,0,0-4.3,2.57c-1.1.74-2.17,1.49-3.24,2.27a1.54,1.54,0,0,0-.73.78c-.51,3.73-.84,7.42-2.23,11a41.27,41.27,0,0,1-3.64,7.09,39.63,39.63,0,0,1-8.17,9.16l-3.33,2.49q-3.16,1.62-6.34,3.18c-7.79,3.85-16.36,5.8-24.94,6.9-18.23,2.34-36.46,1.61-54.72-.05a2.7,2.7,0,0,0,.79,1.23c1.18,1.38,2.38,2.75,3.6,4.09s2.43,2.69,3.68,4A2.82,2.82,0,0,0,141.41,290.37Z" transform="translate(-1.39 -36.61)"/><path class="cls-1" d="M141.57,287.4c14.08.78,28.33,1.7,42.41.44,12-1.08,23.88-3.14,34.77-8.57,8.74-4.37,16.42-10.72,21.19-19.37a43.4,43.4,0,0,0,5.23-14l.56-5a36.69,36.69,0,0,0-.87-10c0-.27-2.61,1.77-2.53,1.71-.39.31-2.19,1.44-2.16,2.15a51.14,51.14,0,0,1-.39,10.35,37.61,37.61,0,0,1-3.43,10.57,44.7,44.7,0,0,1-6.37,9.34,23.82,23.82,0,0,1-3.22,3.36,19.77,19.77,0,0,1-5.79,4.24,74.05,74.05,0,0,1-22.63,8.94A129,129,0,0,1,179.78,284c-14,1-28.05.28-42-.85a25.53,25.53,0,0,0,1.68,2.31C139.87,286,140.81,287.36,141.57,287.4Z" transform="translate(-1.39 -36.61)"/><path class="cls-1" d="M140.7,288.36c17.66.94,35.51,1.87,53.08-.75,10.12-1.5,20.24-4.66,29-10.07a43.7,43.7,0,0,0,10.33-8.39A51.51,51.51,0,0,0,240,259a42.82,42.82,0,0,0,4.15-11.66l.58-5a35.64,35.64,0,0,0-.8-9.88c0-.24-3.11,2.07-3,2-.44.35-2.65,1.66-2.67,2.47-.11,4-.15,8.11-1.36,12a43.42,43.42,0,0,1-3.37,7.95,41.62,41.62,0,0,1-8.14,10.39l-3.4,2.93q-3.18,1.89-6.45,3.63c-7.89,4.26-16.6,6.54-25.43,7.86-18.19,2.72-36.69,1.87-54.94.41a1.14,1.14,0,0,0,.41.8q1.05,1.27,2.16,2.49C138.17,286,139.76,288.31,140.7,288.36Z" transform="translate(-1.39 -36.61)"/><path class="cls-1" d="M141.64,287.15c17.7.76,35.6,1.77,53.2-.94A80.79,80.79,0,0,0,216.36,280c5.12-2.39,10.38-5.23,14.49-9.14a48.3,48.3,0,0,0,9.25-11.71,47.69,47.69,0,0,0,4.58-11.68,29.3,29.3,0,0,0,1.13-7.52,37.09,37.09,0,0,0-.93-10.07c0-.29-2.26,1.55-2.19,1.48-.35.31-1.86,1.27-1.81,1.93a68.4,68.4,0,0,1,.28,8.35,34.83,34.83,0,0,1-2.65,11,42.2,42.2,0,0,1-4.29,8.07,39.59,39.59,0,0,1-7.72,8.94,65.16,65.16,0,0,1-18.94,10l-26.39,4.86q-8,.6-16,.45c-8.66,0-17.29-.45-25.93-.89-.62,0,.33,1,.35,1C140,285.54,141,287.13,141.64,287.15Z" transform="translate(-1.39 -36.61)"/><path class="cls-1" d="M140.89,289.39c17.68,1,35.55,1.9,53.14-.74,10.08-1.51,20.17-4.67,28.84-10.08a43.62,43.62,0,0,0,10.24-8.41,50.62,50.62,0,0,0,6.79-10.06,42.49,42.49,0,0,0,4-11.53l.55-4.89a37,37,0,0,0-.77-9.79,35.34,35.34,0,0,0-3.84,2.33c-.49.34-3.42,1.9-3.5,2.8-.34,3.86-.55,7.68-1.87,11.37a42.15,42.15,0,0,1-3.52,7.4,39.87,39.87,0,0,1-8.15,9.6L219.49,270c-2.11,1.16-4.25,2.28-6.4,3.36-7.82,4-16.44,6.07-25.11,7.25-18.23,2.48-36.56,1.7-54.84.13a2,2,0,0,0,.65,1.06q1.47,1.74,3,3.44c1,1.14,2,2.26,3.1,3.36A2,2,0,0,0,140.89,289.39Z" transform="translate(-1.39 -36.61)"/><path class="cls-1" d="M142.54,286.92c10.52.34,21,.85,31.55.68A134.82,134.82,0,0,0,201,284.8c9.27-2.06,18.33-5.41,26.13-10.91a45.25,45.25,0,0,0,13.84-15.46,47.81,47.81,0,0,0,4.54-11.79,29.72,29.72,0,0,0,1.1-7.57,37.7,37.7,0,0,0-1-10.1c0-.3-1.94,1.42-1.87,1.35-.36.33-1.54,1.16-1.48,1.79a70.19,70.19,0,0,1,.43,8.46,35.5,35.5,0,0,1-2.47,11.32c-4.42,11.87-13.63,20.88-25.58,25.94-23.19,9.82-49,7.66-73.58,7C140.54,284.84,142,286.9,142.54,286.92Z" transform="translate(-1.39 -36.61)"/><path class="cls-1" d="M142.16,287.2c16,.72,31.94,1.49,47.86-.3,10.95-1.22,22.34-3.69,32-9.32a51,51,0,0,0,11.11-8.31,52.73,52.73,0,0,0,7.52-9.88,41.73,41.73,0,0,0,5.2-14.1l.55-5a37,37,0,0,0-.9-10.07c0-.27-2.53,1.72-2.45,1.66-.38.31-2.11,1.41-2.08,2.1a51.18,51.18,0,0,1-.24,10.43,38.26,38.26,0,0,1-3.29,10.7,45.33,45.33,0,0,1-6.26,9.49A24.14,24.14,0,0,1,228,268a20,20,0,0,1-5.75,4.37,73.07,73.07,0,0,1-22.6,9.2q-3.95,1-8,1.54l-21.06,1.55c-10.42.24-20.84-.39-31.24-1-.65,0,.46,1.12.46,1.13C140.2,285.27,141.46,287.16,142.16,287.2Z" transform="translate(-1.39 -36.61)"/><path class="cls-1" d="M141,287.84c17.66.83,35.48,1.8,53-.82,10.15-1.51,20.29-4.69,29-10.11a44.16,44.16,0,0,0,10.37-8.44,50.83,50.83,0,0,0,7-10.23,42.15,42.15,0,0,0,4.11-11.74l.58-5a36.58,36.58,0,0,0-.83-9.95c0-.26-2.78,1.87-2.7,1.81-.4.32-2.33,1.51-2.32,2.26,0,4.14.12,8.3-1,12.35a44.8,44.8,0,0,1-3.18,8.22A42.27,42.27,0,0,1,227,267l-3.4,3.08c-2.1,1.37-4.26,2.65-6.46,3.85-7.9,4.44-16.65,6.85-25.55,8.28-18.18,2.9-36.81,2-55.07.64a.83.83,0,0,0,.3.67c.55.69,1.13,1.36,1.72,2C139,286,140.17,287.8,141,287.84Z" transform="translate(-1.39 -36.61)"/><path class="cls-1" d="M210.18,46.65a14.68,14.68,0,0,1,7.44,4.83Q229,63.06,225.74,82.4c-.07,4.32-.37,8.65-.64,13-.23,3.66-.37,7.38-.94,11l-.78,4.29a35.69,35.69,0,0,1-2.79,8.11c-.36.86,1.71-1.28,1.39-1,1-1,2.53-2.31,3.07-3.65q1.94-5,4.21-9.85c.55-1.5,1-3,1.47-4.57,2.31-7.33,4.15-14.47,2.79-22.21a32.37,32.37,0,0,0-6-13.79A35.69,35.69,0,0,0,211.87,52a12.09,12.09,0,0,0,0,2.49c.11,1,0,2.85.57,3.76a241.15,241.15,0,0,0,17.64,24.4A184.42,184.42,0,0,1,253.69,114a194.61,194.61,0,0,1,9.59,18.75,73.87,73.87,0,0,1,5.49,18.38,64.94,64.94,0,0,1-.55,21.23c-2.44,13.36-8.5,25.62-16.63,36.43-10.59,14.07-24.71,24.53-39.49,33.8-.76.48,2,.17,1.62.21q1.5-.17,3-.39a5.82,5.82,0,0,0,1.54-.34c8.44-5.8,16.6-11.83,23.93-19a112.17,112.17,0,0,0,14.69-17.49c8.25-12.36,13.89-26.69,14.83-41.61a70.53,70.53,0,0,0-1.36-18.51c-1.68-8.34-5.48-16.28-9.68-23.61a179.43,179.43,0,0,0-10.8-17,228.63,228.63,0,0,1-18.72-23.69q-10-14.19-19.13-29l.58,6.25a39.57,39.57,0,0,1,8.82,6.21,28.82,28.82,0,0,1,6.42,8.65l3.09,12.5v4.61a38.47,38.47,0,0,1-3.44,13,40,40,0,0,1-6.89,15.35l4.46-4.6a59.16,59.16,0,0,0,2.43-11,81.33,81.33,0,0,0,.47-9.1c0-8.78.14-17.74-1.5-26.4C225.17,61,223,54.48,218.71,49a33.82,33.82,0,0,0-5.57-5.52c-2.7-2.14-3.59-2.31-6.71-3.66a1,1,0,0,0,.19.83c.45.92.93,1.82,1.43,2.72C208.46,44.13,209.26,46.26,210.18,46.65Z" transform="translate(-1.39 -36.61)"/><path class="cls-1" d="M209.71,49a16.44,16.44,0,0,1,6.54,3.73l-.29-.27a31.53,31.53,0,0,1,4.51,5.78l3.61,10.45a39.65,39.65,0,0,1,1.15,7.88c.61,7.8,0,15.68-.4,23.49l0-.38c-.14,3.06-.41,6.11-.79,9.15l.06-.36-.81,4.65.08-.36-1.21,4.48.1-.35-1.59,4c-.22.4-.16.46.21.18a22.44,22.44,0,0,0,2.14-2.22c1.32-1.47,2.63-3,3.92-4.45a21.22,21.22,0,0,0,1.93-2.41q2.09-5.87,4.49-11.59A86.5,86.5,0,0,0,234.46,91c.38-4.88.68-3-3.12-7.69l2.24,4.53c-.5-3-.77-6.35-1.82-9.26l-1.64-3.37a22.45,22.45,0,0,0-2.56-5.9,28.65,28.65,0,0,0-5.87-7.16c-3.06-2.85-6.42-4.6-10.17-6.45a25.8,25.8,0,0,0,0,3.1q.1,1.39.24,2.79a8.36,8.36,0,0,0,.31,1.93q6.57,10.36,12.78,21,6.33,10.3,11.76,21.12l5.71,8.63A68.74,68.74,0,0,0,260,128.26l-.16-.27,3.31,6.56-.13-.3,2.57,6.53-.1-.32,2,6.55-.09-.34,1.32,6.62-.06-.35.64,6.56,0-.35a67.84,67.84,0,0,1-.53,12.17,74.76,74.76,0,0,1-2.54,11.75,86.48,86.48,0,0,1-10,21.57,109.19,109.19,0,0,1-19.23,22.57A179,179,0,0,1,212.81,245c-.33.21-.24.12,0,.27h.86c1-.09,2-.2,3-.33,1.53-.19,3.07-.38,4.59-.61a4.71,4.71,0,0,0,2-.51c8.58-6.27,16.8-12.78,24.07-20.55a104.84,104.84,0,0,0,19.46-28.82c6.17-13.75,8.8-28.86,6.65-43.83A71.82,71.82,0,0,0,266.79,129a38.32,38.32,0,0,0-8-11.62q-7.14-7-16.21-3.24l8.74,3.26c-13-20.63-26.44-41-39.64-61.54l.52,7.82c3,1.83,5.73,3.59,8,6.33a7.13,7.13,0,0,1,2.25,5.78q0,8.23,10,6.57l-5.86-3.68,6.47,8.88L230.81,83l2.51,10.66.92-5.75L220.69,120.8l8.32-9.24a63.73,63.73,0,0,0,1.79-14,119.3,119.3,0,0,0-.67-12c-.44-4.64-.79-9.23-1.61-13.83a50.73,50.73,0,0,0-2.92-10.9,49.65,49.65,0,0,0-4.47-9.26,41.81,41.81,0,0,0-8.21-9.1l-3.23-2.36a23.57,23.57,0,0,0-6.78-3.53,2.81,2.81,0,0,0,.51,1.41c.85,1.65,1.73,3.28,2.63,4.91s1.81,3.25,2.74,4.85A2.83,2.83,0,0,0,209.71,49Z" transform="translate(-1.39 -36.61)"/><path class="cls-1" d="M209.53,46A16.57,16.57,0,0,1,216,49.67,27.48,27.48,0,0,1,223,62c1.79,6.53,2,13.11,1.85,19.82s-.45,13.16-1.09,19.7a64.27,64.27,0,0,1-1.3,8.62,34.83,34.83,0,0,1-2.82,8c-.32.75,1.43-1,1.17-.69a11.84,11.84,0,0,0,2.42-2.91c5.49-12.08,12.66-24.53,10-38.35A33.05,33.05,0,0,0,227,62.5a36,36,0,0,0-15.77-11.72,9.12,9.12,0,0,0,0,2.3c.1,1,0,2.65.56,3.46a214.73,214.73,0,0,0,18.17,23.78q10.47,12.93,19.61,26.85c3.65,6.17,7.1,12.72,10.25,19.16a86.28,86.28,0,0,1,7.62,21.32,62.91,62.91,0,0,1,.5,21.25c-2,14.23-8.49,27.86-17.3,39.16a118.26,118.26,0,0,1-15.23,16.17,182.42,182.42,0,0,1-24.24,17.44c-.71.45,1.8.19,1.45.23,1.08-.1,3.12,0,4.06-.66,14.55-9.93,28.34-21.13,38.37-35.81,8.22-12,14-26,15.19-40.62a69.32,69.32,0,0,0-1-18.19c-1.51-8.29-5.16-16.19-9.2-23.52-3.22-5.85-6.61-11.65-10.24-17.26q-9.5-13.09-19.14-26.11-10.14-14.08-19.3-28.81l.54,5.76a39.41,39.41,0,0,1,10.71,7.46,31.38,31.38,0,0,1,8.29,15,36.91,36.91,0,0,1-.19,14.95l-1.25,5a105.05,105.05,0,0,1-9.6,18.73l3.38-3.22a39.84,39.84,0,0,0,2.28-8.45l.56-4.39a132.73,132.73,0,0,0,.38-13.53c0-7.27.16-14.66-1.24-21.84a41.71,41.71,0,0,0-4.17-12.49,33.25,33.25,0,0,0-3.29-4.84,20.43,20.43,0,0,0-4-4.1,20.23,20.23,0,0,0-6.49-3.73c-.69-.32.36,1.51.29,1.37.4.77.81,1.52,1.25,2.27A4,4,0,0,0,209.53,46Z" transform="translate(-1.39 -36.61)"/><path class="cls-1" d="M209,46.9a15.12,15.12,0,0,1,7.48,4.87q9.57,9.66,8.23,25.51a150,150,0,0,1-.44,16.14c-.25,4.4-.37,8.85-1,13.21l-.76,4.3a35.72,35.72,0,0,1-2.77,8.12c-.41,1,2.07-1.7,1.7-1.3.91-1,1.8-2,2.68-3a9.85,9.85,0,0,0,1.29-1.66l1.87-5,2.18-5.18c.31-1.11.42-2.29.66-3.41.77-3.63,2-7.21,2.44-10.91a39.41,39.41,0,0,0,0-8,18.74,18.74,0,0,0-.83-5.08,30.36,30.36,0,0,0-4-9,34,34,0,0,0-6.4-7.41,42.42,42.42,0,0,0-10.46-6.41,14.55,14.55,0,0,0,0,2.64c.08.8.17,1.59.27,2.38a6.74,6.74,0,0,0,.32,1.62q8.16,12.88,17.3,25.08,4.41,5.49,8.95,10.88a88.39,88.39,0,0,1,16.63,22c1.79,3.09,3.47,6.25,5.06,9.45a87.24,87.24,0,0,1,7.79,21.47,64.26,64.26,0,0,1,.67,21.43c-1.95,14.32-8.3,28.08-17.08,39.49a119.09,119.09,0,0,1-15.19,16.32A181.37,181.37,0,0,1,211.27,243c-.87.55,2.52.09,2.08.14,1.31-.15,2.61-.32,3.91-.51a9.67,9.67,0,0,0,2-.4c8.44-6,16.58-12.18,23.84-19.57a111,111,0,0,0,14.45-17.9c8-12.58,13.29-27.14,13.85-42.12a71.36,71.36,0,0,0-1.79-18.49c-1.86-8.3-5.75-16.22-10.08-23.47L256,114.91a64,64,0,0,0-8.34-10.78A110.27,110.27,0,0,1,230,82q-9.83-14.37-19-29.15l.61,6.65a37.72,37.72,0,0,1,8.71,6,27.18,27.18,0,0,1,6.32,8.57l2.65,12.58,0,7.51a14.58,14.58,0,0,1-2.59,11,50.07,50.07,0,0,1-7,13.92l5.67-6A61.15,61.15,0,0,0,227.45,102a82,82,0,0,0,.24-9.14c-.22-8.75-.3-17.66-2.23-26.24-1.5-6.62-3.89-12.9-8.27-18.17a34.46,34.46,0,0,0-5.6-5.33c-2.79-2.14-3.53-2.26-6.73-3.64a1.16,1.16,0,0,0,.23.89q.74,1.5,1.56,3C207.08,44.1,208,46.48,209,46.9Z" transform="translate(-1.39 -36.61)"/><path class="cls-1" d="M209.69,45.88a10.65,10.65,0,0,1,7,5.27,19,19,0,0,1,6.94,14.3,67.74,67.74,0,0,1,1,16c-.25,6.57-.59,13.18-1.3,19.72l-.51,4.32a41.51,41.51,0,0,1-3.67,12.23c-.21.5.72-.22.74-.24a8.84,8.84,0,0,0,2-2.22c3.86-7.43,8.27-14.81,10.51-23a35.76,35.76,0,0,0,.2-19.57,33.1,33.1,0,0,0-5.68-11.27A36.37,36.37,0,0,0,211,49.8c-.19-.08-.05,2,0,2.19.1.9,0,2.52.54,3.29A292.44,292.44,0,0,0,230,79q10,13.68,19.36,27.79,3.5,6.45,6.92,12.91,20.58,36.43-1.95,81.7c-10.76,16.92-26.94,29.06-43.71,39.51-.67.42,1.59.22,1.27.25,1-.09,2.7,0,3.54-.59A177.71,177.71,0,0,0,239,222.21a109,109,0,0,0,18.66-23.11c7.06-11.85,11.63-25.34,11.87-39.22a63.69,63.69,0,0,0-.95-12.33c-1.5-8.31-4.86-16-8.72-23.46-3.18-6.13-6.58-12.23-10.21-18.11q-9.42-13.71-19.14-27.21-10.15-14.13-19.43-28.84l.51,5.48c4,2,7.75,4.05,10.92,7.29a33.06,33.06,0,0,1,9.13,17.09c2.45,13.76-5.59,26.51-12.42,37.65L222,115a53.13,53.13,0,0,0,2.7-10.41,101.38,101.38,0,0,0,.83-11c.12-4,.17-8.06.21-12.08A81.16,81.16,0,0,0,225,67.8c-.92-5.63-2.41-11.13-5.45-16a20.89,20.89,0,0,0-2.44-3.19l-2.72-2.66a17.81,17.81,0,0,0-6.21-3.41c-.59-.26.12,1.08.09,1C208.51,44.1,209.06,45.62,209.69,45.88Z" transform="translate(-1.39 -36.61)"/><path class="cls-1" d="M209.23,48a16.57,16.57,0,0,1,6.53,3.72l-.27-.21L218,54.13a18.8,18.8,0,0,1,3.87,8.32,25.74,25.74,0,0,1,2.31,7.84,40.13,40.13,0,0,1,.91,8c.28,8.43-.35,16.9-.9,25.31l0-.33-.5,4.71,0-.33-.8,4.63.06-.32a35.45,35.45,0,0,1-2.73,8.12q-.28.52.21.18a17.59,17.59,0,0,0,1.91-2q1.76-2,3.48-3.93a16.63,16.63,0,0,0,1.7-2.14l2.08-5.42,2.48-6c.67-2.2.84-6.49,1-9.26a12.55,12.55,0,0,0-.25-3.87c-.69-3-.65-6.21-1.3-9.24a38.15,38.15,0,0,0-2.93-8.11A30.65,30.65,0,0,0,221.41,61a41.39,41.39,0,0,0-10.28-6.44,21.78,21.78,0,0,0,0,3c.07.9.14,1.79.24,2.67a7.61,7.61,0,0,0,.3,1.84c8.49,13.37,17.5,26.69,24.93,40.69l4.92,9.56a43.9,43.9,0,0,0,9.57,3.59l-5.52-4.22a35,35,0,0,1,15.83,21.85A37.26,37.26,0,0,1,267.64,149a64.18,64.18,0,0,1,1.25,15.46,75.19,75.19,0,0,1-7.39,29,103.11,103.11,0,0,1-17.21,25.11c-9.43,10.18-20.43,18.17-32.09,25.59-.31.2-.22.13,0,.27h.8c.93-.07,1.86-.17,2.78-.29,1.43-.17,2.86-.35,4.29-.57a4.22,4.22,0,0,0,1.82-.49c10.6-7.67,20.86-15.9,29.18-26.09,7.65-9.37,14-19.76,17.84-31.29a81,81,0,0,0,4-31,65.64,65.64,0,0,0-3.19-15.76,74.92,74.92,0,0,0-6.48-14.83l-3.88-5.79A17.18,17.18,0,0,0,245.27,111l6,4.69q-20.31-30.24-39.95-60.91l.51,7.47c5.54,3.25,11.69,7.73,13.16,14.42l.61,3.57.42.72c-.33.44-.35.78-.07,1a59.26,59.26,0,0,0,4.52,4.15l-.67-.76,2.9,8,.12-4.26-1.84,10.12L232,95.87,220.29,120l7.4-8.15a71.17,71.17,0,0,0,1.69-9.13,79.66,79.66,0,0,0,0-14.07c-.54-8.18-1-16.34-3.32-24.27-1.79-6.16-4.22-11.66-8.39-16.51a43.32,43.32,0,0,0-4.14-4.33,22.17,22.17,0,0,0-3.27-2.51,22.42,22.42,0,0,0-6.71-3.51,2.13,2.13,0,0,0,.4,1.2q1.07,2.09,2.21,4.13T208.43,47A2,2,0,0,0,209.23,48Z" transform="translate(-1.39 -36.61)"/><path class="cls-1" d="M210.47,45.82l8.5,6.11a65.29,65.29,0,0,1,5.52,32.32c-.28,4.13-.46,8.27-.86,12.39-.28,2.88-.55,5.78-1,8.64a45.53,45.53,0,0,1-3.75,12.06c-.19.44.08.33.34.31.41,0,1.2-1.2,1.4-1.54q3.87-6.39,7.7-12.82A79.65,79.65,0,0,0,233,90.9a36.28,36.28,0,0,0,.84-16.85,33.26,33.26,0,0,0-6.47-13.73,36.64,36.64,0,0,0-16-11.72c-.2-.09,0,1.78,0,1.94.11.82,0,2.22.56,2.9,9.69,12.82,19.46,25.56,28.52,38.83A260.71,260.71,0,0,1,260,125.81a93.66,93.66,0,0,1,6.79,18.33,59.64,59.64,0,0,1,1,21.3,78.45,78.45,0,0,1-12.11,33,108.14,108.14,0,0,1-13,16.66c-9.57,10-20.65,17.78-32.3,25-.57.35,1.16.27.93.29a6.07,6.07,0,0,0,2.57-.49c12.29-8.1,24-17,33.62-28.21,10.17-11.93,17.8-26.08,20.66-41.57a65.71,65.71,0,0,0,.63-21.08c-1.21-8.52-4.39-16.49-8.18-24.15-3.15-6.35-6.58-12.72-10.21-18.81q-9.66-13.9-19.07-28Q221,63.65,211.5,48.71l.54,4.85a44,44,0,0,1,9.5,5.9,17.76,17.76,0,0,1,5.5,6.82,19.32,19.32,0,0,1,5.24,9.66l.84,4.52-2.7,16.4a40.84,40.84,0,0,1-4.88,9.89q-3.19,5.37-6.65,10.59l1.74-1.23a50.74,50.74,0,0,0,3.43-12.19c.4-2.86.61-5.82.83-8.69.37-5.06.55-10.2.65-15.27a90.05,90.05,0,0,0-.3-10.76,42.78,42.78,0,0,0-4.34-15.7,25.71,25.71,0,0,0-3.55-5A6.82,6.82,0,0,0,215.92,47a17.48,17.48,0,0,0-6.31-3.25C209.18,43.54,210,45.63,210.47,45.82Z" transform="translate(-1.39 -36.61)"/><path class="cls-1" d="M210.27,45.9A17.37,17.37,0,0,1,220.84,55a32.29,32.29,0,0,1,3.44,10.52,76.09,76.09,0,0,1,1,16.1c-.16,5.12-.53,10.27-.94,15.38q-.28,4.39-.9,8.74A41,41,0,0,1,219.79,118c-.21.49.7-.2.72-.22a8.64,8.64,0,0,0,1.92-2.17c3.87-7.45,8.27-14.81,10.5-23,2-7.22,2.17-14.92-.47-22a36.36,36.36,0,0,0-5-8.86,36.29,36.29,0,0,0-15.84-11.73c-.19-.08,0,2,0,2.18.09.9,0,2.52.53,3.28a276.12,276.12,0,0,0,18.48,23.79,178.84,178.84,0,0,1,22.86,34.09C269,142.15,279,164.14,255,201.7c-10.8,16.91-27,29-43.75,39.48-.64.4,1.45.24,1.16.26.9-.07,2.46,0,3.24-.55a179.77,179.77,0,0,0,23.74-18.29,119.86,119.86,0,0,0,14.73-16.78c8.45-11.64,14.32-25.57,15.83-39.92a65,65,0,0,0-.57-18.31A77.19,77.19,0,0,0,262,126.82c-3.54-7.06-7.43-14-11.6-20.72Q240.94,92.47,231.23,79,221.08,64.92,211.82,50.2l.51,5.46c4,2.07,7.72,4.2,10.85,7.5l2.91,3.33a22,22,0,0,1,4,7.65,15.32,15.32,0,0,1,2,6.2,21.86,21.86,0,0,1,.37,7.44L230,98.72a80.25,80.25,0,0,1-10.11,19l2.64-2.39a52.61,52.61,0,0,0,3.09-12.67c.31-3,.44-6,.56-8.92.28-7.71.55-15.56-.24-23.23-.68-6.6-2.22-13.45-5.95-19.06a26.87,26.87,0,0,0-2.51-3.23l-2.78-2.67a18.35,18.35,0,0,0-6.29-3.49c-.63-.27.21,1.24.16,1.15C208.92,43.82,209.56,45.6,210.27,45.9Z" transform="translate(-1.39 -36.61)"/><path class="cls-1" d="M209.18,46.43q8.4,2.48,10.14,11.33a33.32,33.32,0,0,1,5.34,24.39c-.1,4.32-.38,8.64-.65,12.94-.23,3.66-.38,7.38-.95,11l-.77,4.28a35.13,35.13,0,0,1-2.79,8.1c-.37.87,1.75-1.33,1.42-1,1-1,2.63-2.39,3.17-3.76,1.9-4.78,4-9.39,5.62-14.27,2.38-7.19,4.46-14.84,2.85-22.46a33.59,33.59,0,0,0-4.75-11.59,34.12,34.12,0,0,0-6.48-7.4A42.83,42.83,0,0,0,210.8,51.6a11.26,11.26,0,0,0,0,2.48c.11,1,0,2.84.58,3.74A225.53,225.53,0,0,0,229.11,82a157.36,157.36,0,0,1,25.28,35,167.25,167.25,0,0,1,9,18.57A63.67,63.67,0,0,1,268.27,157a72.72,72.72,0,0,1-1.68,18c-2.76,12.26-8.7,23.35-16.08,33.44C240.17,222.55,225.68,233,211,242.22c-.8.51,2.19.14,1.78.18,1.12-.12,2.23-.26,3.33-.43a7.22,7.22,0,0,0,1.72-.36c8.39-5.84,16.49-11.91,23.76-19.14a112,112,0,0,0,14.5-17.5c8.09-12.29,13.58-26.53,14.47-41.3a70.19,70.19,0,0,0-1.38-18.29c-1.68-8.28-5.46-16.16-9.62-23.44-3.27-5.74-6.77-11.37-10.5-16.83a258.12,258.12,0,0,0-19-24.43q-10-14.16-19.16-28.93l.57,6.22a39.22,39.22,0,0,1,8.92,6,28.54,28.54,0,0,1,6.62,8.48l3.36,12.52-.1,4.89a37.93,37.93,0,0,1-3.72,13.31,43.74,43.74,0,0,1-7.1,15.35l4.59-4.74a67.53,67.53,0,0,0,2.1-8.61,70.2,70.2,0,0,0,.65-11.22c0-7.68.18-15.61-1-23.22-.94-6.14-2.44-12.46-5.66-17.84A31.13,31.13,0,0,0,214,45.4a14.71,14.71,0,0,0-3-2.29,15.49,15.49,0,0,0-5.1-2.56.79.79,0,0,0,.13.72c.39.8.8,1.59,1.23,2.36S208.33,46.07,209.18,46.43Z" transform="translate(-1.39 -36.61)"/><path class="cls-1" d="M62.54,167.51a11.24,11.24,0,0,0-4.23,3,11.93,11.93,0,0,0-2.52,2.83,37,37,0,0,0-4.95,9.21,43.21,43.21,0,0,0-3,20.26,15.31,15.31,0,0,0,1.75,5.82A16.77,16.77,0,0,0,53,213.94l2.37,3.39,2.06,6.14a10.13,10.13,0,0,1-3.75,8.81,30.35,30.35,0,0,1-5.7,8.3,45.85,45.85,0,0,0-4.78,6.73,20.65,20.65,0,0,0-2.6,14.06c1.32,7.18,5.62,13.5,10.68,18.62s11.4,9.66,18.75,10.73a28.85,28.85,0,0,0,10.48-.2l3.93-1.31a23.88,23.88,0,0,0,7.12-4.61c.26-.21-2.8-2.22-2.73-2.17-.21-.14-2.55-2-3-1.69a11.35,11.35,0,0,1-4.1,2.46A12.51,12.51,0,0,1,77,284.49c-3,.42-7.8.43-10.66-.88a37,37,0,0,1-8.88-5.72,29.34,29.34,0,0,1-6.51-7.29c-1.82-3.28-3.66-6.3-4.61-10a18.45,18.45,0,0,1-.86-5.68l.55-2.77c1.7-7.66,7-13.28,10.88-19.85,2.26-3.86,4.18-8.41,3.62-12.94a21.89,21.89,0,0,0-1.18-4.9c-1.21-3.38-3.79-6.11-5.11-9.42a34,34,0,0,1-.78-4.24,16.28,16.28,0,0,1-.17-5.26A32.47,32.47,0,0,1,54.2,190a13.08,13.08,0,0,1,1.64-4.64c1.45-3.41,2.81-6.87,5.3-9.7l2.39-2.45a14.31,14.31,0,0,1,5.17-3.11c.12-.06-3-1.6-3-1.58C65.28,168.36,63.18,167.14,62.54,167.51Z" transform="translate(-1.39 -36.61)"/><path class="cls-1" d="M63.3,170.51a22,22,0,0,0-5.72,4.09,28.58,28.58,0,0,0-4.45,6.64,49.32,49.32,0,0,0-4.85,17.87,27,27,0,0,0,.49,8,19.71,19.71,0,0,0,3.33,7.46,38.89,38.89,0,0,1,4.22,6.65,13.79,13.79,0,0,1,.91,7.58l.06-.36a28.54,28.54,0,0,1-5.17,9.69c-1.92,2.39-4,4.67-5.81,7.13a29.86,29.86,0,0,0-5,9.21,21,21,0,0,0,.54,13.34c3.26,9.47,11.15,18,20,22.51a25.81,25.81,0,0,0,14.2,2.88,19.62,19.62,0,0,0,7.91-2,23.44,23.44,0,0,0,6.82-4.67c.25-.21-4.67-4.21-4.57-4.13-.12-.1-4.34-4.05-4.93-3.68a6.41,6.41,0,0,1-3.14,1.59,7.53,7.53,0,0,1-3.68.43c-2.63.06-5.69,0-8-1.42-4.36-2.61-8.66-6.08-11.4-10.42a39.76,39.76,0,0,0-2.6-5l-1.16-3a13.17,13.17,0,0,1-.86-4.71A7.18,7.18,0,0,1,51,252c1.64-6.19,5-11.53,8.1-17.09,2.85-5.15,5.13-11.14,4.84-17.14a21.37,21.37,0,0,0-2.48-9.23c-.95-1.82-2.2-3.54-2.63-5.58a23.89,23.89,0,0,1-.54-6.84,25.76,25.76,0,0,1,2.32-8.5c1.25-2.9,2.34-5.95,4.49-8.36l2.08-2.1a13.37,13.37,0,0,1,5-2.9,1.49,1.49,0,0,0-.85-.61c-1.15-.54-2.31-1-3.49-1.54s-2.35-1-3.54-1.44A1.44,1.44,0,0,0,63.3,170.51Z" transform="translate(-1.39 -36.61)"/><path class="cls-1" d="M61.7,166.5a11.25,11.25,0,0,0-4.28,3,11.94,11.94,0,0,0-2.54,2.86,37.31,37.31,0,0,0-5,9.29,43.68,43.68,0,0,0-3,20.43,15.56,15.56,0,0,0,1.75,5.86A16.61,16.61,0,0,0,52,213.34l2.41,3.47,2,6.16a9.84,9.84,0,0,1-3.8,8.73A31.12,31.12,0,0,1,47,239.89a43.19,43.19,0,0,0-4.78,6.68,20.65,20.65,0,0,0-2.56,14.09c1.33,7.24,5.64,13.65,10.76,18.81s11.53,9.78,18.95,10.84A29.71,29.71,0,0,0,80,290.1l4-1.34a24.17,24.17,0,0,0,7.22-4.7c.29-.22-1.92-1.55-1.87-1.53-.25-.15-1.75-1.35-2.19-1-3,2.11-5.88,3.93-9.59,4.43a29.81,29.81,0,0,1-9.79-.4,9.23,9.23,0,0,1-4.74-1.86l-3.47-2.05a30.31,30.31,0,0,1-4.83-4,39,39,0,0,1-4.59-4.85c-.88-1.5-1.75-3-2.6-4.54A26.51,26.51,0,0,1,45,262.79l-1-3.93a16.79,16.79,0,0,1,1.17-10,18.51,18.51,0,0,1,2.63-6l1.79-2.8c1.73-2.59,3.75-5,5.41-7.64a30.16,30.16,0,0,0,3.1-6.45,16.69,16.69,0,0,0,1-4.14l-.34-3.2a20,20,0,0,0-2.52-6.52l-1.94-3.38a11.59,11.59,0,0,1-2.46-6.23,30.38,30.38,0,0,1-.07-9.23A36.36,36.36,0,0,1,53,187.57l1.29-2.93c1.52-3.48,3-7.08,5.55-10l2.47-2.53a14.79,14.79,0,0,1,5.3-3.15,29.32,29.32,0,0,0-2.83-1.51C64.3,167.29,62.33,166.14,61.7,166.5Z" transform="translate(-1.39 -36.61)"/><path class="cls-1" d="M61.72,168.11A11.33,11.33,0,0,0,57.41,171a16.62,16.62,0,0,0-3.73,4.4,42.32,42.32,0,0,0-4.37,9.67,54.8,54.8,0,0,0-2.26,10c-.47,3.77-.46,8.42.91,12,1.25,3.29,3.32,5.91,5.33,8.76A15.7,15.7,0,0,1,56,220.85l.3,5.79a13.73,13.73,0,0,1-3.07,6.2,22.29,22.29,0,0,1-4.07,5.64,74.1,74.1,0,0,0-5.08,6.36c-2.74,3.95-4.61,8.2-4.73,13.09a24.33,24.33,0,0,0,2.17,10,40,40,0,0,0,7.25,10.82c5,5.4,11,10,18.16,12a23.44,23.44,0,0,0,6.13.62,23,23,0,0,0,6.24-.5l3.91-1.31a23.81,23.81,0,0,0,7-4.54c.26-.2-3-2.38-2.89-2.33-.24-.16-2.68-2.18-3.23-1.84A10.7,10.7,0,0,1,80,282.91a12,12,0,0,1-4.63,1c-3,.25-7.53.05-10.21-1.4l-2.37-1.55a28.53,28.53,0,0,1-6-4.43c-2.23-2.14-4.56-4.41-5.89-7.21-1.54-3.22-3.22-6.12-4-9.64a16.86,16.86,0,0,1-.65-5.39l.65-2.69c1.67-6.62,5.65-11.85,9.05-17.64,2.51-4.29,4.73-9.17,4.69-14.26a20.33,20.33,0,0,0-1.34-6.52c-1.11-3.17-3.43-5.86-4.51-9q-.32-2-.54-4a14.92,14.92,0,0,1,0-5,28.73,28.73,0,0,1,1-5.2,11.51,11.51,0,0,1,1.69-4.32c1.43-3.17,2.71-6.42,5.1-9l2.29-2.26a13.53,13.53,0,0,1,5.11-3,1.18,1.18,0,0,0-.72-.55c-1-.48-2-.92-3-1.34C65.18,169.26,62.44,167.69,61.72,168.11Z" transform="translate(-1.39 -36.61)"/><path class="cls-1" d="M61.32,165.66a11.23,11.23,0,0,0-4.32,3,17.44,17.44,0,0,0-3.79,4.49A43.25,43.25,0,0,0,48.74,183c-2.28,7-3.82,15.32-1.42,22.55a16.44,16.44,0,0,0,2.93,5.55,61.94,61.94,0,0,1,5.2,8.5l.57,3.07a15.52,15.52,0,0,1-3,8.75c-3.14,4.68-7.68,8.28-10.61,13.12a24.26,24.26,0,0,0-3.64,9.83c-1,8.42,4,17.15,9.48,23.13C53.41,283,59.61,287.78,67,289.8a25.26,25.26,0,0,0,6.48.6,24.81,24.81,0,0,0,6.59-.56l4.05-1.4a25,25,0,0,0,7.31-4.83c.12-.09-2.32-2.29-2.93-1.84-3,2.26-6.25,4.49-10.11,5.1l-4.16.34a16.41,16.41,0,0,1-7.8-1.3,17.1,17.1,0,0,1-7.24-3.18l-3.37-2.52A27,27,0,0,1,50,273.84,28.1,28.1,0,0,1,45.44,267l-1.64-3.85a14.21,14.21,0,0,1-.61-9.26,14.31,14.31,0,0,1,1.71-8.29l1.57-2.87c2.29-3.94,5.42-7.3,7.87-11.13a26.46,26.46,0,0,0,3-6.26,12.31,12.31,0,0,0,.45-6c-.52-3.91-2.83-6.61-4.5-10l-2.75-6.71a19.17,19.17,0,0,1-.39-5.65A40,40,0,0,1,53.07,184a33.19,33.19,0,0,1,5.78-10.25l2.54-2.6A15.24,15.24,0,0,1,66.83,168a23.05,23.05,0,0,0-2.64-1.44C63.74,166.38,61.93,165.31,61.32,165.66Z" transform="translate(-1.39 -36.61)"/><path class="cls-1" d="M62.69,169.61A15.83,15.83,0,0,0,57,173.72a30.4,30.4,0,0,0-4.44,6.69,49.16,49.16,0,0,0-4.62,16c-.63,5.39-.25,10.87,2.53,15.66q2.41,3.31,4.75,6.67a12.68,12.68,0,0,1,2,6.34l0-.32-.28,3.22,0-.32a28.49,28.49,0,0,1-5.24,9.76c-1.94,2.4-4,4.67-5.87,7.14a29.62,29.62,0,0,0-4.94,9.19A20.8,20.8,0,0,0,41.47,267c3.33,9.41,11.19,17.82,20,22.32a25.93,25.93,0,0,0,14.1,2.89,20.37,20.37,0,0,0,7.9-1.94,23.32,23.32,0,0,0,6.86-4.57c.26-.2-4-3.5-3.89-3.43-.16-.12-3.69-3.33-4.26-3a10.29,10.29,0,0,1-4.73,2.19l-2.74.22A18.38,18.38,0,0,1,66,280.31q-1.74-1.23-3.54-2.37a18.11,18.11,0,0,1-4-3.19,25.45,25.45,0,0,1-3.52-4,10.2,10.2,0,0,1-2.21-3.74c-1.57-3.08-3.08-5.78-3.61-9.27a18.75,18.75,0,0,1,1.3-9.11c1.91-5.48,5.46-10.21,8.15-15.3a32.58,32.58,0,0,0,4-11.9,20,20,0,0,0-1-9.45l-1.42-3q-1.38-2.44-2.59-5a24.13,24.13,0,0,1,1.17-15.81c1.37-3,2.45-5.91,4.37-8.59a13.89,13.89,0,0,1,3-3.4,13.52,13.52,0,0,1,5.1-2.94,1.32,1.32,0,0,0-.8-.6c-1.11-.52-2.24-1-3.37-1.49C66.58,170.93,63.47,169.17,62.69,169.61Z" transform="translate(-1.39 -36.61)"/><path class="cls-1" d="M61.16,164.58a11.05,11.05,0,0,0-4.27,3,19.35,19.35,0,0,0-3.82,4.53,43.72,43.72,0,0,0-4.58,10c-2.39,7.26-3.89,15.88-1.37,23.33a16.44,16.44,0,0,0,3.26,5.94,49.62,49.62,0,0,1,5.29,8.39l-.84,8A31.85,31.85,0,0,1,51,233.34c-2.93,3.54-6.47,6.63-8.89,10.59a23,23,0,0,0-3.69,13.68,26.67,26.67,0,0,0,2.45,8.78,44.07,44.07,0,0,0,7.91,11.43c5.36,5.51,11.76,10.13,19.34,12a24.25,24.25,0,0,0,6.47.45,24.79,24.79,0,0,0,6.58-.73L85.22,288a25.72,25.72,0,0,0,7.36-5.07c.31-.26-1.25-1.91-1.65-1.57-3,2.54-6.36,5.19-10.34,6.09a31,31,0,0,1-10.35.45c-7.8-.89-15.08-6.22-20.19-11.95-6-6.69-10.63-16.16-8.43-25.3,1.45-6,5-10.53,8.82-15.21,2.68-3.29,5.86-7.09,6.81-11.34a13.59,13.59,0,0,0-.18-6c-.83-2.76-2-4.07-3.7-6.57l-2.47-3.67A15.43,15.43,0,0,1,49.12,202a33.47,33.47,0,0,1,.12-10.43,43.64,43.64,0,0,1,5.9-15.86,25.49,25.49,0,0,1,10.27-9.27c.23-.11-2.1-1.21-2-1.17C63,165,61.69,164.27,61.16,164.58Z" transform="translate(-1.39 -36.61)"/><path class="cls-1" d="M62,165.92a11.36,11.36,0,0,0-4.37,2.93,16.44,16.44,0,0,0-3.81,4.48,42.12,42.12,0,0,0-5.18,12C46.86,192,46,199.05,48,205.78a21.93,21.93,0,0,0,4.25,7.39l3.91,6.62a7.67,7.67,0,0,1-.53,6.89,11.12,11.12,0,0,1-2.67,6.13c-3.48,4.59-7.83,8.35-10.68,13.42A21.28,21.28,0,0,0,39.34,258c.41,6.73,4.16,12.93,8.3,18a51.14,51.14,0,0,0,8.25,8,32.94,32.94,0,0,0,11.8,5.87,24.58,24.58,0,0,0,6.45.58,24.64,24.64,0,0,0,6.57-.59l4-1.38A24.68,24.68,0,0,0,92,283.71c.06,0-2.78-2.65-3.44-2.15-2.94,2.25-6,4.36-9.75,5a32.77,32.77,0,0,1-8.22.24c-4.93-.45-10.21-3.34-14-6.51a42.42,42.42,0,0,1-9.48-11.14,32.13,32.13,0,0,1-3.86-9.71c-1.1-5.28.35-10.42,2.83-14.88,2.32-4.17,5.46-7.67,8.16-11.57a31.22,31.22,0,0,0,3.75-7.2,9.81,9.81,0,0,0,.65-4.57,20.38,20.38,0,0,0-2.45-7.87,28.68,28.68,0,0,1-3.7-7,13.48,13.48,0,0,1-1.95-7.06l0-3.81a24.45,24.45,0,0,1,1.6-7.61A41.39,41.39,0,0,1,56.78,177l2.2-3a17.34,17.34,0,0,1,8.1-5.86,17.42,17.42,0,0,0-2.4-1.34C64.22,166.53,62.64,165.59,62,165.92Z" transform="translate(-1.39 -36.61)"/><path class="cls-1" d="M61.48,167.18a11.22,11.22,0,0,0-4.27,3A11.67,11.67,0,0,0,54.68,173a37.24,37.24,0,0,0-4.92,9.23,43.36,43.36,0,0,0-2.94,20.26,15.32,15.32,0,0,0,1.76,5.83,17,17,0,0,0,3.33,5.35l2.35,3.4,2.05,6.12a10.2,10.2,0,0,1-3.76,8.8,31.06,31.06,0,0,1-5.7,8.29A44.81,44.81,0,0,0,42.07,247a20.69,20.69,0,0,0-2.59,14.1c1.31,7.17,5.63,13.49,10.68,18.62s11.38,9.68,18.74,10.76a29.35,29.35,0,0,0,10.53-.16L83.38,289a23.76,23.76,0,0,0,7.15-4.59c.27-.21-2.35-1.86-2.29-1.83-.25-.16-2.11-1.66-2.6-1.33a12.76,12.76,0,0,1-4.37,2.48A14.13,14.13,0,0,1,76.35,285a19.54,19.54,0,0,1-5.56-.07,19.84,19.84,0,0,1-5.48-1.1,37.45,37.45,0,0,1-9-6.06c-2.41-2.23-4.91-4.63-6.43-7.56-1.73-3.34-3.5-6.44-4.37-10.14a18.58,18.58,0,0,1-.75-5.7l.61-2.78a38.28,38.28,0,0,1,5.43-11.83c1.72-2.66,3.67-5.22,5.23-8,2.18-3.84,4-8.3,3.42-12.77a22.32,22.32,0,0,0-1.16-4.89c-1.2-3.38-3.7-6.23-4.89-9.59-.28-1.42-.49-2.85-.63-4.28a16.22,16.22,0,0,1,0-5.25,33,33,0,0,1,1-5.48A12.68,12.68,0,0,1,55.5,185c1.48-3.32,2.86-6.71,5.35-9.45l2.37-2.38a14,14,0,0,1,5.17-3,1,1,0,0,0-.64-.52c-.89-.43-1.79-.84-2.7-1.22C64.58,168.18,62.16,166.79,61.48,167.18Z" transform="translate(-1.39 -36.61)"/><path class="cls-1" d="M64.44,81a35.9,35.9,0,0,1-5.53,13.77,39,39,0,0,1-6.53,7.51c-4.94,4.38-10.9,7-16.88,9.65-9,3.93-17.89,7.78-24.46,15.31A31.85,31.85,0,0,0,4,140.4c-1.68,6.72-.77,13.62,1.43,20.1,2.25,6.63,5.83,12.74,9.55,18.62q3.26,4.83,6.34,9.77a46.61,46.61,0,0,1,6.91,18.64c.13.88,1.15-1.65,1-1.39.44-1,.86-2,1.25-3a6.54,6.54,0,0,0,.53-1.6c-.33-1.64-.58-3.46-1-5.07a51.06,51.06,0,0,0-3.75-9.31,100.71,100.71,0,0,0-5.61-9.36L17.47,173l-1.65-3.53c-2.75-5.64-5.53-11.2-6.44-17.49a28.11,28.11,0,0,1,3.53-18.56,34.15,34.15,0,0,1,4.77-6.32,22.87,22.87,0,0,1,5.92-4.87,33.87,33.87,0,0,1,6.77-4.7c5.89-3.39,12.08-6.22,17.85-9.82A47.42,47.42,0,0,0,63,93.61a48.56,48.56,0,0,0,4.74-9.17c1.45-3.68.94-2.36,2.25-7.44a.87.87,0,0,0-.72.23c-.76.48-1.5,1-2.23,1.51S64.65,80.09,64.44,81Z" transform="translate(-1.39 -36.61)"/><path class="cls-1" d="M64.67,83.05a27.87,27.87,0,0,1-2.2,7.39A28.85,28.85,0,0,1,59,97.14l.2-.28-3.19,4.25.21-.27A39.23,39.23,0,0,1,49,107.49a60.12,60.12,0,0,1-8.34,4.74c-4.53,2.22-9.21,4.09-13.7,6.39-8.83,4.51-17,10.64-21,20.06C1.1,150,4.55,162.12,10,172.52c3.35,6.44,7.59,12.32,11.24,18.58a65.93,65.93,0,0,1,4.74,9.47,30.06,30.06,0,0,1,2.12,9.48,2.63,2.63,0,0,0,.77-1.21Q29.94,206.41,31,204c.71-1.63,1.39-3.28,2-4.93a2.65,2.65,0,0,0,.34-1.39A64,64,0,0,0,30.64,188a74.28,74.28,0,0,0-5.71-11.25c-1.6-2.71-3.46-5.35-4.6-8.28-.93-2.4-2.16-4.64-3.11-7-2.15-5.48-3.83-11.33-2.85-17.27.91-5.53,4-10.39,7.82-14.37,9.33-9.7,22.61-14.2,33.06-22.46a56.72,56.72,0,0,0,8-7.77,52.43,52.43,0,0,0,7.27-11.5,38.09,38.09,0,0,0,2.11-4.87,33.66,33.66,0,0,0,2.26-7.42,2.38,2.38,0,0,0-1.21.57q-2.07,1.38-4.08,2.83c-1.36.95-2.69,1.92-4,2.92A2.39,2.39,0,0,0,64.67,83.05Z" transform="translate(-1.39 -36.61)"/><path class="cls-1" d="M63.65,80a36,36,0,0,1-3.21,9.68A38,38,0,0,1,54.89,98c-6.58,7.51-16,11-24.88,15S13,121.5,7.55,129.62a30.79,30.79,0,0,0-5.33,14.56c-.64,7.14,1.33,14.23,4.2,20.7s7,12.61,10.91,18.64a83.57,83.57,0,0,1,7.86,14.12,30,30,0,0,1,2.16,9.43c.11.77,1-1.23.88-1,.33-.75.65-1.5.95-2.26a3.57,3.57,0,0,0,.37-1.23,51.56,51.56,0,0,0-2.48-9.47c-.6-1.51-1.51-3.37-2.24-4.81a106.5,106.5,0,0,0-5.69-9.53l-3.23-4.95-1.78-3.69c-2.9-5.87-5.72-11.79-6.58-18.36a29.67,29.67,0,0,1,3.8-19.16,42,42,0,0,1,13.72-13.72c5.49-3.52,11.39-6.29,17.12-9.37,6-3.2,11.43-6.87,15.87-12A43.36,43.36,0,0,0,63.78,89a29.62,29.62,0,0,0,2.14-4.65,31.75,31.75,0,0,0,2.28-7.28c.2-.72-1.43.51-1.36.46-.73.49-1.44,1-2.15,1.52A4.54,4.54,0,0,0,63.65,80Z" transform="translate(-1.39 -36.61)"/><path class="cls-1" d="M63.59,81.23A36.16,36.16,0,0,1,58,95.07a40,40,0,0,1-6.52,7.53c-4.91,4.4-10.86,7.08-16.83,9.72-9.54,4.22-19.31,8.43-25.87,16.94a31.07,31.07,0,0,0-6.49,16.2c-.63,7,1.35,14,4.18,20.4s6.88,12.48,10.74,18.46a104.18,104.18,0,0,1,5.69,9.53,36.65,36.65,0,0,1,4.3,14.2,1.27,1.27,0,0,0,.57-.76c.49-1,.95-2.09,1.39-3.16.38-.92,1.66-3,1.42-4.15a61.12,61.12,0,0,0-2.66-9.54,68.85,68.85,0,0,0-6.05-11.57C20.08,176,18,173.13,16.7,170c-1.1-2.67-2.44-5.22-3.5-7.91-2.38-6.07-4-12.78-2.78-19.32a30.23,30.23,0,0,1,8.29-15.13c9.15-9.56,22.12-13.69,32.64-21.37A49.32,49.32,0,0,0,65.21,90.73c.84-1.48,1.7-3.29,2.39-4.84a63.42,63.42,0,0,0,3.2-9.77,1.32,1.32,0,0,0-.89.35c-1,.64-1.94,1.29-2.88,2C66.35,78.92,63.85,80.21,63.59,81.23Z" transform="translate(-1.39 -36.61)"/><path class="cls-1" d="M63,79.54a34.8,34.8,0,0,1-3.07,9.56,37.56,37.56,0,0,1-5.54,8.28c-8.92,10.26-22.64,12.75-33.79,19.22a39.74,39.74,0,0,0-14.67,14c-6.25,10.66-4.79,22.89,0,33.76a115.62,115.62,0,0,0,7.68,13.81,88.28,88.28,0,0,1,11.2,19.17,30.16,30.16,0,0,1,2.14,9.41c.09.67.82-.88.75-.72.3-.63,1.09-1.89,1-2.63A48.46,48.46,0,0,0,26.23,194a65.82,65.82,0,0,0-4.69-9.25c-2.79-4.72-5.95-9.17-8.53-14-3.16-5.95-6-12.34-6.82-19.09a30.85,30.85,0,0,1,4-19.73A42.8,42.8,0,0,1,24,118.07c5.42-3.49,11.27-6.19,17-9.18,5.87-3.09,11.32-6.58,15.75-11.58A41.28,41.28,0,0,0,62.39,89a21.6,21.6,0,0,0,2.06-4.54,29.32,29.32,0,0,0,2.08-7.11c.16-.65-1.15.3-1.11.28C64.88,78,63.12,78.85,63,79.54Z" transform="translate(-1.39 -36.61)"/><path class="cls-1" d="M64.28,82.27a27.89,27.89,0,0,1-2.23,7.4,29.3,29.3,0,0,1-3.46,6.72l.18-.27a39.69,39.69,0,0,1-14.41,13.16c-5.72,3.22-11.93,5.45-17.78,8.4C18.17,121.94,10.71,127.4,6.33,136a29.74,29.74,0,0,0-3.21,15.81c.47,7.06,3.18,13.74,6.44,19.93,3.37,6.41,7.62,12.26,11.29,18.49a63.65,63.65,0,0,1,4.75,9.44,29.8,29.8,0,0,1,2.13,9.49,2.08,2.08,0,0,0,.7-1q1-2.1,1.87-4.23t1.77-4.28a2,2,0,0,0,.27-1.22,63.58,63.58,0,0,0-2.69-9.6,73.84,73.84,0,0,0-5.82-11.37,61.12,61.12,0,0,1-4.78-8.49c-1.25-3.14-2.85-6.1-4-9.28-2.08-5.75-3.11-11.78-1.6-17.81a29.78,29.78,0,0,1,8.86-14.21c8.66-8,19.88-12.42,29.42-19.22A55.4,55.4,0,0,0,64.94,95.22,47.09,47.09,0,0,0,69.1,88a35.62,35.62,0,0,0,2.1-4.83,33.37,33.37,0,0,0,2.24-7.39,1.87,1.87,0,0,0-1.09.49q-1.84,1.23-3.66,2.52c-1.21.85-2.41,1.72-3.58,2.62A1.89,1.89,0,0,0,64.28,82.27Z" transform="translate(-1.39 -36.61)"/><path class="cls-1" d="M62.53,79.21a45.45,45.45,0,0,1-3,9.44l-8.86,11.4-3.9,3c-5.41,3.58-11.67,5.71-17.57,8.29-9.2,4-18.44,9.34-23.53,18.36A32,32,0,0,0,1.39,145.5c0,7.52,2.26,14.68,5.65,21.34s7.56,12.57,11.54,18.74a78.21,78.21,0,0,1,5.27,9.47,18,18,0,0,1,1.79,4.69,22.38,22.38,0,0,1,1.3,7.07c.07.51.65-.36.63-.34a2.9,2.9,0,0,0,.62-1.58,44.93,44.93,0,0,0-2.07-9.38,60.8,60.8,0,0,0-4.71-9.28c-3.7-6.23-8-12-11.33-18.5S4.39,154.25,4.34,147l.32-5.4L12,126.09a41.74,41.74,0,0,1,7.31-6.87A89.3,89.3,0,0,1,35,110.34c5.71-2.69,11.46-5.38,16.35-9.42a38.59,38.59,0,0,0,6.82-7.28,26.34,26.34,0,0,0,2.72-4.35,43.25,43.25,0,0,0,4-11.39c.12-.52-.77,0-.79,0C63.68,78.17,62.65,78.72,62.53,79.21Z" transform="translate(-1.39 -36.61)"/><path class="cls-1" d="M63.59,79.84a34.87,34.87,0,0,1-3.06,9.54A38.44,38.44,0,0,1,55,97.66c-8.93,10.25-22.67,12.71-33.81,19.17C14,121,7.77,127,4.55,134.77-.3,146.45,3.31,158.93,9,169.55c2.59,4.83,5.63,9.26,8.59,13.85a72.65,72.65,0,0,1,7.91,14.17A30.29,30.29,0,0,1,27.63,207c.09.68.83-.89.75-.73.31-.64,1.11-1.93,1-2.68A48.63,48.63,0,0,0,27,194.15a65,65,0,0,0-4.7-9.22c-1-1.74-2.27-3.43-3.36-5.14a136.07,136.07,0,0,1-7.61-13.26c-2.89-6-5.09-12.65-5.08-19.37A30.11,30.11,0,0,1,7.67,138l1.62-4a23.68,23.68,0,0,1,6.12-8A21.11,21.11,0,0,1,21,120.46a28.34,28.34,0,0,1,3.14-2.18c2.64-1.69,5.4-3.2,8.19-4.64,5-2.61,10.28-4.89,15.1-7.89a44.24,44.24,0,0,0,9.64-8,40.73,40.73,0,0,0,5.78-8.3,21.29,21.29,0,0,0,2.09-4.55A29.17,29.17,0,0,0,67,77.75c.16-.63-1.1.28-1.06.25C65.42,78.34,63.76,79.16,63.59,79.84Z" transform="translate(-1.39 -36.61)"/><path class="cls-1" d="M63.38,80.61a36.23,36.23,0,0,1-5.55,13.8,38.92,38.92,0,0,1-6.53,7.5c-4.93,4.38-10.89,7-16.86,9.64-9,3.94-17.92,7.79-24.48,15.34a31.9,31.9,0,0,0-7.09,13.22c-1.66,6.73-.74,13.62,1.46,20.11s5.82,12.74,9.54,18.62q3.24,4.84,6.33,9.78a46.45,46.45,0,0,1,6.9,18.64c.13.87,1.14-1.62,1-1.37.43-1,.85-1.95,1.24-2.94a6.88,6.88,0,0,0,.52-1.59c-.33-1.63-.59-3.43-1-5A52.08,52.08,0,0,0,25.09,187,134.92,134.92,0,0,0,18,175.11a78.62,78.62,0,0,1-4.19-8.17,47.32,47.32,0,0,1-5.16-17.78,27.81,27.81,0,0,1,5-17.81A48.6,48.6,0,0,1,27.83,118.5c5.76-3.62,12-6.41,17.82-9.92A50.4,50.4,0,0,0,62.34,93.06,50.13,50.13,0,0,0,67,83.89c1.45-3.69.94-2.35,2.25-7.45a.92.92,0,0,0-.75.25c-.8.51-1.59,1-2.36,1.6C65.54,78.73,63.6,79.72,63.38,80.61Z" transform="translate(-1.39 -36.61)"/><path class="cls-1" d="M274.43,213.47a54.31,54.31,0,0,1,11.67,10.89,18.14,18.14,0,0,1,3,11l.63-4.49-1.25,7.34,1.48-5.46-2.75,8.13,2.11-5-3.82,7.49,2.74-4.54-4.77,6.76,3.21-4-5.42,6.18,2.86-2.87c-2.47,2.35-5,4.65-7.46,7s-4.71,5.42-7.06,8.06a89.25,89.25,0,0,1-9.69,9.46c-7.65,6.29-15.93,9.43-27,9-1.25-.05-.27.38.4.58a14.8,14.8,0,0,0,4.89.95,33.65,33.65,0,0,0,8.91-1.38,42.64,42.64,0,0,0,8.41-3.49,56.17,56.17,0,0,0,12.7-10c5.23-5.33,9.55-11.46,14.3-17.2,2.68-3.23,5.55-6.57,6.77-10.62a34.79,34.79,0,0,0,1.14-4.35,18.26,18.26,0,0,0-1.8-10c-3.35-7.09-9.39-12.06-15.39-16.87a1,1,0,0,0-.1.82c.1,1,.24,2,.4,2.95C273.66,210.48,273.71,212.94,274.43,213.47Z" transform="translate(-1.39 -36.61)"/><path class="cls-1" d="M274,215.81c2.27,1.62,4.46,3.35,6.55,5.18a32.75,32.75,0,0,1,5.38,6l-.19-.35,1.67,3.07-.17-.36a17.12,17.12,0,0,1,1.53,8.84l1.08-9.79L288.1,241l3-12.7-5.91,17.53,5.23-10-6.68,11.26,5.75-8-7.78,10.21,5.22-5.69q-4.18,4.8-8.78,9.2a38.62,38.62,0,0,0-5.76,6.67,103.39,103.39,0,0,1-11.83,12.12,40.4,40.4,0,0,1-10.28,6.51l-4.1,1.55a32.4,32.4,0,0,1-12.92,1.5c-1.15,0,2.87,1,2.24.88,1.48.33,3,.64,4.47.92a12.36,12.36,0,0,0,2.34.35,52.38,52.38,0,0,0,9.41-2.24,49.18,49.18,0,0,0,8.68-4.41,54.06,54.06,0,0,0,7.82-6.26,91.28,91.28,0,0,0,9.6-10.73,104.72,104.72,0,0,0,8.35-12.05c.57-1,1.14-2,1.63-3.06l3.45-11.69.27-1a15.36,15.36,0,0,0-.16-3.45,25.62,25.62,0,0,0-.6-3.26,29,29,0,0,0-5.9-10.93,92.32,92.32,0,0,0-13-12.53,2.9,2.9,0,0,0,0,1.52c.24,1.87.52,3.73.82,5.59s.6,3.72.94,5.58A3,3,0,0,0,274,215.81Z" transform="translate(-1.39 -36.61)"/><path class="cls-1" d="M273.85,212.86c3.15,2.42,6.58,4.92,9.19,7.95l2.49,3.14a19,19,0,0,1,3,8.58l-.07-1.29-.05,3.89.48-3.28L287.75,238l1.18-4.07-2.53,6.71,1.66-3.76L285,242.31l1.74-2.7L283,244.54l2.05-2.43q-5,4.47-9.58,9.31a69.86,69.86,0,0,0-4.58,5.28l-4.54,5.05Q253.49,276.4,232,277.42c-1.17-.06-.24.38.36.57a13.86,13.86,0,0,0,4.53.88,41,41,0,0,0,12.95-2.65,49.92,49.92,0,0,0,16.62-11.54c5.44-5.47,9.82-11.85,15-17.55,2.59-2.85,5.49-5.86,6.93-9.46a17.08,17.08,0,0,0,.81-9.75c-1.77-8.94-9.36-14.88-16-20.36-.51-.43-.13,1.81-.1,2C273.16,210.37,273.13,212.3,273.85,212.86Z" transform="translate(-1.39 -36.61)"/><path class="cls-1" d="M273.28,213.69c4.07,3.07,9,6.55,11.68,10.94l1.51,2.71a17.13,17.13,0,0,1,1.58,8.9l.73-6.14-1.34,8.31,1.74-6.72-3,9.36,2.56-6.26-4.22,8.72,3.38-5.8-5.34,8,4-5.22-6.19,7.38,3.65-3.76c-3.65,3.62-7.52,7.06-10.84,11a118.66,118.66,0,0,1-11.54,12.49,53.23,53.23,0,0,1-9,6.6c-6.58,3.72-13.3,4.95-21.09,4.7-1,0,2.35.93,1.82.81,1.22.28,2.45.54,3.68.78a8.47,8.47,0,0,0,1.94.26,35.37,35.37,0,0,0,9-1.75,45,45,0,0,0,8.44-3.87,60.23,60.23,0,0,0,12.57-10.49A168.33,168.33,0,0,0,283.05,247a32.53,32.53,0,0,0,5.24-9.84,54.14,54.14,0,0,0,1.34-5.34c.55-3.22-.75-7.1-2.2-9.93-3.55-6.92-9.55-11.93-15.5-16.75a1.2,1.2,0,0,0-.09.93q.2,1.71.48,3.39C272.43,210.18,272.5,213.1,273.28,213.69Z" transform="translate(-1.39 -36.61)"/><path class="cls-1" d="M273.61,212.82a68.38,68.38,0,0,1,7.83,6.36c4.48,4.43,6.84,8.4,6.65,15.85l.35-2.43-1.06,5.21.92-3-2.13,5,1.05-2.23q-7.55,7.69-14.57,15.86-3.36,3.92-6.86,7.7l-4.8,4.72q-13.49,12.56-29.55,10.72c-1.08-.06-.23.39.31.56a12.85,12.85,0,0,0,4.1.79,37.21,37.21,0,0,0,8.58-1.08,43.05,43.05,0,0,0,15.63-8c7.88-6.16,13-14.74,20.05-21.67,2.58-2.53,5.22-4.74,7-8a16.07,16.07,0,0,0,1.73-10.33c-1.39-8.85-8.77-14.66-15.5-19.7-.48-.36-.27.95-.26,1C273.11,210.72,273.12,212.46,273.61,212.82Z" transform="translate(-1.39 -36.61)"/><path class="cls-1" d="M273.64,214.79a83.23,83.23,0,0,1,6.53,5.17,33.17,33.17,0,0,1,5.39,6l-.19-.29,1.68,3-.17-.3a17.23,17.23,0,0,1,1.59,8.86l1-8.38-1.52,10.31,2.51-10-5.61,15.84,4.65-8.66-6.19,10.08,5.13-7-7.2,9.18,4.65-5c-4,4.12-8.19,8.05-11.83,12.45a111.13,111.13,0,0,1-11.47,12.57,53.66,53.66,0,0,1-8.94,6.66c-6.54,3.77-13.27,5.11-21,4.94-1.11,0,2.72,1,2.12.87,1.4.31,2.81.61,4.23.88a12,12,0,0,0,2.23.33,38.4,38.4,0,0,0,9.28-2.09A47.62,47.62,0,0,0,259,276a64.64,64.64,0,0,0,12.66-11,135.68,135.68,0,0,0,8.85-11.15,82.4,82.4,0,0,0,5.76-8.82,44.74,44.74,0,0,0,2.14-5.91,44.21,44.21,0,0,0,2.25-6.5,22.17,22.17,0,0,0-.47-6.55,23.14,23.14,0,0,0-1.13-3.51c-3.38-8.26-10.61-14.26-17.33-19.76a2.18,2.18,0,0,0,0,1.29c.2,1.59.43,3.17.69,4.75s.51,3.15.81,4.72A2.19,2.19,0,0,0,273.64,214.79Z" transform="translate(-1.39 -36.61)"/><path class="cls-1" d="M274.09,212.82c3.21,2.3,6.93,4.66,9.41,7.81l3.7,5.72a14.91,14.91,0,0,1,.23,11.43l.46-1.36a18.45,18.45,0,0,1-3.37,4.84,82.29,82.29,0,0,1-9.7,8.87c-3.22,3.13-6.08,7-9.22,10.27-4.05,4.2-8.48,8.3-13.7,11a43,43,0,0,1-8,3.21,31.83,31.83,0,0,1-12.71.94c-.64-.05-.43.22-.1.45a7.35,7.35,0,0,0,3.12.67,41.93,41.93,0,0,0,8.44-.68,39.24,39.24,0,0,0,8.09-2.77,47.35,47.35,0,0,0,12.59-8.76c1.53-1.43,3.19-3.18,4.61-4.73l4.34-5,4.25-5.11c2.34-2.37,5.22-4.19,7.58-6.56a16.79,16.79,0,0,0,3.81-4.93,17.53,17.53,0,0,0,1.19-7.55,19,19,0,0,0-3-9c-3-4.66-7.56-7.84-12-10.91C273.57,210.33,273.7,212.55,274.09,212.82Z" transform="translate(-1.39 -36.61)"/><path class="cls-1" d="M274.28,212.87a67.77,67.77,0,0,1,7.84,6.4c4.49,4.44,6.86,8.43,6.69,15.89l.37-2.56L288.11,238l.95-3.17L286.89,240,288,237.7l-2.88,4.76,1.34-2-10.8,10.63q-3.39,4-6.92,7.86A30.79,30.79,0,0,1,253.52,269q-9.12,9.68-21.5,7.77c-1-.06-.21.39.28.55a11.63,11.63,0,0,0,3.73.71,39.42,39.42,0,0,0,8.59-1,40.29,40.29,0,0,0,10.14-4.17c6.91-3.92,12.4-9.62,17.46-15.67a114.21,114.21,0,0,1,9.62-10.75,28.5,28.5,0,0,0,5.25-5.72,17.06,17.06,0,0,0,2.45-11.93c-1.4-8.89-8.88-14.85-15.61-19.95-.51-.38-.25,1.06-.25,1.06C273.74,210.53,273.76,212.49,274.28,212.87Z" transform="translate(-1.39 -36.61)"/><path class="cls-1" d="M273.39,213.27c3.75,2.78,7.47,5.6,10.4,9.29s4.27,7.23,4.27,12.62l.59-4.24L287.42,238l1.45-5.24-2.72,7.88,2.09-4.88-3.81,7.34,2.73-4.51-4.75,6.71,3.26-4.07-5.47,6.19,2.94-2.95c-2.53,2.42-5.24,4.74-7.71,7.23-3.23,3.28-5.93,7.12-9.14,10.44a78.23,78.23,0,0,1-10,9.06c-7,5.07-16.44,7.17-24.91,6.85-.91,0,2.06.87,1.59.76,1.46.35,3.39,1.07,4.91.92a34,34,0,0,0,8.9-1.52,41.31,41.31,0,0,0,8.33-3.61c6.72-3.82,12.18-9.37,17.11-15.24q4.32-5.35,8.5-10.79,1.83-2.22,3.56-4.5a26.69,26.69,0,0,0,3.77-6.48,18,18,0,0,0,.68-11.36c-2.35-8.58-9.73-14.41-16.38-19.69a.8.8,0,0,0-.12.74c.09.89.21,1.77.36,2.66C272.67,210.61,272.71,212.76,273.39,213.27Z" transform="translate(-1.39 -36.61)"/></svg>